<?xml version="1.0" encoding="UTF-8"?>
<svg version="1.1" xmlns="http://www.w3.org/2000/svg" width="500" height="500">
<path d="M0 0 C1.63229065 -0.00391162 1.63229065 -0.00391162 3.29755688 -0.00790226 C5.11312824 -0.00455618 5.11312824 -0.00455618 6.96537781 -0.0011425 C8.239595 -0.00270249 9.5138122 -0.00426248 10.82664204 -0.00586975 C14.37975194 -0.0100675 17.93283519 -0.00797038 21.48594522 -0.00488353 C25.3114786 -0.00263145 29.13700722 -0.00610808 32.96253967 -0.00886345 C40.46319065 -0.01332221 47.96383165 -0.01234421 55.46448302 -0.00945081 C61.55760642 -0.00719719 67.65072701 -0.00688407 73.74385071 -0.00797462 C74.6093392 -0.00812786 75.4748277 -0.00828109 76.36654311 -0.00843897 C78.12447985 -0.00875868 79.88241659 -0.00908289 81.64035332 -0.00941156 C98.14470327 -0.01226666 114.64904768 -0.00897886 131.15339673 -0.00361119 C145.33087953 0.00085687 159.50835414 0.00008095 173.68583679 -0.00452995 C190.12903446 -0.00987518 206.57222727 -0.01199197 223.01542568 -0.00891769 C224.76708412 -0.00859912 226.51874256 -0.00828475 228.270401 -0.00797462 C229.1323677 -0.00782035 229.99433441 -0.00766607 230.88242131 -0.00750712 C236.9718931 -0.00664181 243.06136182 -0.00810514 249.15083313 -0.01045418 C256.56659687 -0.01325181 263.98235002 -0.0125147 271.39811254 -0.00717343 C275.18549765 -0.00453592 278.97286508 -0.0035322 282.76025009 -0.00682259 C286.8564736 -0.0103276 290.95265199 -0.0061574 295.0488739 -0.0011425 C296.25925481 -0.00337322 297.46963572 -0.00560395 298.71669483 -0.00790226 C299.8048886 -0.00529452 300.89308237 -0.00268677 302.01425171 0 C302.96111186 0.00016235 303.90797201 0.0003247 304.88352489 0.00049198 C307.00712585 0.12584114 307.00712585 0.12584114 308.00712585 1.12584114 C309.15277159 9.55837988 309.24637764 18.12904796 309.31962585 26.62584114 C309.34862976 27.77826302 309.37763367 28.93068489 309.40751648 30.11802864 C309.41589539 31.22404427 309.42427429 32.33005989 309.4329071 33.46959114 C309.45478088 34.95749153 309.45478088 34.95749153 309.47709656 36.47545052 C308.86754445 39.91300778 307.73984129 41.00655034 305.00712585 43.12584114 C302.79423523 44.13975716 302.79423523 44.13975716 300.35087585 44.87974739 C298.96291809 45.31613533 298.96291809 45.31613533 297.54692078 45.76133919 C296.54378845 46.06724983 295.54065613 46.37316048 294.50712585 46.68834114 C275.31617627 52.84144392 256.65142888 60.17818659 238.44462585 68.81334114 C236.81400208 69.57844002 236.81400208 69.57844002 235.1504364 70.35899544 C216.71712054 79.31183002 200.35118403 93.13046627 192.00712585 112.12584114 C191.68743835 112.7458802 191.36775085 113.36591927 191.03837585 114.00474739 C185.60025726 125.66145529 189.19195883 141.38409144 193.00712585 153.12584114 C196.96406818 163.78268886 202.94862826 172.31094619 210.63774109 180.6087513 C212.11556083 182.24597216 213.49758043 183.94609816 214.8938446 185.65318489 C217.95242919 189.23414664 221.35809072 191.92202573 225.19462585 194.62584114 C225.84809998 195.09505989 226.5015741 195.56427864 227.17485046 196.04771614 C234.46589595 201.24070244 241.85191965 206.37885451 250.00712585 210.12584114 C250.00712585 211.11584114 250.00712585 212.10584114 250.00712585 213.12584114 C241.45363815 213.19531509 232.9002681 213.2486389 224.34656811 213.28127766 C220.37483958 213.2969417 216.40330392 213.31819313 212.4316864 213.3521595 C208.59969497 213.3847271 204.76788917 213.40268859 200.93577003 213.41047287 C199.47289926 213.4160211 198.01003879 213.42685539 196.54724693 213.44303131 C194.5000389 213.46477193 192.45360045 213.46780961 190.40629578 213.46641731 C188.65756416 213.47641006 188.65756416 213.47641006 186.87350464 213.48660469 C184.00712585 213.12584114 184.00712585 213.12584114 182.21508789 211.80377388 C180.26454194 209.09434692 178.86343564 206.10627205 177.38212585 203.12584114 C173.72157883 196.03737999 169.46143059 189.98848955 164.00712585 184.12584114 C163.41802429 183.48259895 162.82892273 182.83935677 162.2219696 182.17662239 C147.19947519 167.48429269 125.81235854 164.53807151 105.83183289 164.72081184 C85.37277796 165.22153776 66.98161307 171.00964402 52.36650085 185.79771614 C46.35557259 192.87180178 41.22364305 200.84752477 37.62431335 209.41880989 C36.00712585 212.12584114 36.00712585 212.12584114 33.70402527 212.78694344 C31.18190288 213.10387831 28.77990064 213.25271687 26.23954773 213.25523567 C25.32088928 213.25838783 24.40223083 213.26153999 23.45573425 213.26478767 C22.47238098 213.26276344 21.48902771 213.26073921 20.47587585 213.25865364 C18.93462036 213.26008873 18.93462036 213.26008873 17.36222839 213.26155281 C15.18689411 213.26223268 13.01155779 213.26039185 10.83622742 213.25621223 C7.54679147 213.25090514 4.25749482 213.25614101 0.96806335 213.26255989 C-9.39461554 213.26551458 -19.67847864 213.24111691 -29.99287415 212.12584114 C-28.14455387 207.91695027 -26.2146966 206.94134423 -22.05537415 204.93834114 C-12.33496292 199.92239413 -4.5260899 192.99875098 3.00712585 185.12584114 C4.21368835 183.95021614 4.21368835 183.95021614 5.44462585 182.75084114 C6.29025085 181.88459114 7.13587585 181.01834114 8.00712585 180.12584114 C8.59107117 179.5496302 9.17501648 178.97341927 9.7766571 178.37974739 C23.31134387 164.25775667 28.86986699 147.29240504 29.50712585 128.00084114 C29.30891807 121.84318584 28.20978706 117.36289719 25.00712585 112.12584114 C24.42318054 111.05849739 24.42318054 111.05849739 23.82743835 109.96959114 C17.06545763 98.60626259 5.93709011 91.06609009 -4.99287415 84.12584114 C-6.73320769 82.38550759 -6.11892249 80.12810567 -6.12840271 77.80870247 C-6.12637848 77.04710823 -6.12435425 76.28551399 -6.12226868 75.50084114 C-6.124021 74.70250862 -6.12577332 73.9041761 -6.12757874 73.08165169 C-6.13199782 70.42969305 -6.12905907 67.77780052 -6.12568665 65.12584114 C-6.12635967 63.29120559 -6.12732968 61.45657013 -6.12858582 59.62193489 C-6.13006286 55.77166586 -6.12790801 51.92141999 -6.12324524 48.07115364 C-6.11754795 43.12427617 -6.12082691 38.17745295 -6.1268177 33.23057747 C-6.13042313 29.44061559 -6.12928482 25.65066668 -6.12668991 21.86070442 C-6.12602059 20.03616009 -6.12684924 18.21161459 -6.12916946 16.38707161 C-6.13169569 13.84162953 -6.12785584 11.29627655 -6.12226868 8.75084114 C-6.12429291 7.9892469 -6.12631714 7.22765266 -6.12840271 6.44297981 C-6.10387618 0.44238791 -5.93612131 0.00101783 0 0 Z " fill="#FD5722" transform="translate(168.9928741455078,248.87415885925293)"/>
<path d="M0 0 C1.17433594 0.36029297 2.34867187 0.72058594 3.55859375 1.09179688 C12.21760445 3.79090296 12.21760445 3.79090296 15.625 6.0625 C15.01251378 13.10874987 13.17580715 19.53954236 11.125 26.29296875 C10.773237 27.46902679 10.421474 28.64508484 10.05905151 29.85678101 C9.11511336 33.00740128 8.16548354 36.15622985 7.21291351 39.30424881 C6.42582156 41.90919846 5.64361704 44.51560444 4.86147118 47.12204266 C0.47227626 61.74751301 -3.96467528 76.35761024 -8.53613281 90.92724609 C-11.13264277 99.21373411 -13.58440948 107.53735033 -15.99243164 115.88037109 C-17.57614145 121.35897508 -19.20955208 126.81522392 -20.9375 132.25 C-23.96057339 141.79283501 -26.66140562 151.42790493 -29.375 161.0625 C-32.61725241 162.12948431 -34.55026303 161.98033881 -37.79443359 160.98608398 C-38.6640976 160.72508408 -39.5337616 160.46408417 -40.42977905 160.19517517 C-41.83738998 159.75631737 -41.83738998 159.75631737 -43.2734375 159.30859375 C-44.258815 159.01066422 -45.2441925 158.71273468 -46.25942993 158.40577698 C-49.42591974 157.44664033 -52.58805405 156.47400089 -55.75 155.5 C-59.86059627 154.24412815 -63.97298235 152.9942161 -68.0859375 151.74609375 C-69.09839539 151.43755463 -70.11085327 151.1290155 -71.1539917 150.81112671 C-79.29876916 148.34513616 -87.48828192 146.07269564 -95.71737671 143.90538025 C-96.57972931 143.67629471 -97.44208191 143.44720917 -98.33056641 143.21118164 C-99.4701329 142.91299278 -99.4701329 142.91299278 -100.63272095 142.60877991 C-102.375 142.0625 -102.375 142.0625 -103.375 141.0625 C-102.99999725 132.47493697 -100.34765537 124.48210165 -97.875 116.3125 C-97.42218598 114.79629266 -96.96988239 113.27993279 -96.51806641 111.76342773 C-93.30533394 101.01260585 -90.00179373 90.28952871 -86.63745117 79.58520508 C-84.77136427 73.63480571 -82.95986392 67.67590599 -81.24609375 61.6796875 C-80.72619873 59.87165649 -80.72619873 59.87165649 -80.19580078 58.02709961 C-79.54991957 55.76776647 -78.91330175 53.50575207 -78.28857422 51.24047852 C-74.74021623 38.85998425 -69.56240709 29.11140347 -60.375 20.0625 C-59.69824219 19.38703125 -59.02148438 18.7115625 -58.32421875 18.015625 C-49.70736401 9.90182581 -39.40569424 3.44983743 -29 -2.125 C-27.94039063 -2.69605469 -26.88078125 -3.26710938 -25.7890625 -3.85546875 C-17.17544984 -6.58541235 -8.26983658 -2.61615771 0 0 Z " fill="#FD5722" transform="translate(225.375,8.9375)"/>
<path d="M0 0 C7.53923641 0.5987419 14.42972713 2.7722069 21.6328125 5 C22.96595278 5.40699764 24.29930071 5.81331568 25.63284302 6.21899414 C28.39452806 7.05987458 31.1552046 7.90395232 33.91516113 8.75048828 C40.18335022 10.67095866 46.46363018 12.55127196 52.7421875 14.4375 C57.13380156 15.76059651 61.52504685 17.08491491 65.91627884 18.40927887 C67.91909024 19.01329696 69.92193111 19.61721726 71.92477417 20.22113037 C92.83006375 26.52510315 113.72668076 32.85718661 134.61853027 39.20556641 C147.61541749 43.15469902 160.61305737 47.10072144 173.625 51 C174.75591064 51.33894287 175.88682129 51.67788574 177.05200195 52.02709961 C182.30464023 53.59952575 187.55886346 55.16650352 192.81471252 56.72816467 C199.77929527 58.79800312 206.73891844 60.88328885 213.69091797 62.99511719 C215.80602913 63.63742186 217.92214835 64.2764223 220.03955078 64.91113281 C222.63637912 65.69410975 225.22526566 66.49848197 227.8125 67.3125 C228.54758789 67.53059326 229.28267578 67.74868652 230.04003906 67.97338867 C234.73705636 69.49175107 234.73705636 69.49175107 235.82617188 71.59692383 C236.09020301 75.24700588 234.89038826 78.41402548 233.76171875 81.8359375 C233.40047661 82.97139511 233.40047661 82.97139511 233.03193665 84.12979126 C232.26005066 86.5480591 231.47397527 88.96144236 230.6875 91.375 C230.16898842 92.99188845 229.65139994 94.60907324 229.13476562 96.2265625 C227.12705525 102.49689137 225.09101797 108.75689636 223 115 C216.68519074 114.38776088 211.09404189 112.46278058 205.125 110.375 C196.87157542 107.55379509 188.60528085 104.97083772 180.1875 102.6875 C168.74562617 99.57145001 157.45018106 96.06342548 146.1628418 92.43432617 C136.25054121 89.26197673 126.28073822 86.29889936 116.29296875 83.375 C98.89036101 78.28032798 81.52680421 73.06125873 64.17285156 67.8034668 C60.0393362 66.55116656 55.90501531 65.30154805 51.77050018 64.05255318 C20.21014995 54.51592682 20.21014995 54.51592682 6.89141846 50.17634583 C6.12770935 49.92890121 5.36400024 49.6814566 4.57714844 49.42651367 C3.48074036 49.06981094 3.48074036 49.06981094 2.36218262 48.7059021 C0.60607047 48.18111488 -1.16899174 47.71892216 -2.9510498 47.29043579 C-4.44046082 46.93071182 -4.44046082 46.93071182 -5.95996094 46.5637207 C-7.3298819 46.25601494 -7.3298819 46.25601494 -8.72747803 45.9420929 C-11 45 -11 45 -12.3686676 43.15242004 C-13.11046075 40.62340293 -12.93099833 39.49197085 -12.14135742 36.99755859 C-11.90418503 36.22350677 -11.66701263 35.44945496 -11.4226532 34.65194702 C-11.15298233 33.82578888 -10.88331146 32.99963074 -10.60546875 32.1484375 C-10.20525261 30.86557358 -10.20525261 30.86557358 -9.79695129 29.55679321 C-8.94086171 26.82498245 -8.06428973 24.10022866 -7.1875 21.375 C-6.60741176 19.53166243 -6.02861991 17.68791635 -5.45117188 15.84375 C-1.25348992 2.50697983 -1.25348992 2.50697983 0 0 Z " fill="#FC5722" transform="translate(229,88)"/>
<path d="M0 0 C2.45836551 2.15947608 4.74788127 4.39286588 7.0078125 6.7578125 C7.63945312 7.37011719 8.27109375 7.98242188 8.921875 8.61328125 C16.59768198 16.54269419 22.15034316 27.83779975 22.10546875 38.83203125 C22.10334633 39.85778008 22.10334633 39.85778008 22.10118103 40.9042511 C22.09559126 43.08464972 22.08304072 45.26494501 22.0703125 47.4453125 C22.06529617 48.92512872 22.0607335 50.40494656 22.05664062 51.88476562 C22.04562521 55.50914807 22.02836762 59.1334702 22.0078125 62.7578125 C17.89115411 62.23650954 14.06928684 61.60820667 10.15234375 60.234375 C9.28818848 59.9367627 8.4240332 59.63915039 7.53369141 59.33251953 C6.19056885 58.86241455 6.19056885 58.86241455 4.8203125 58.3828125 C-29.82557391 46.54972484 -69.95090906 46.07474376 -103.8671875 61.4453125 C-106.9921875 62.7578125 -106.9921875 62.7578125 -110.9921875 62.7578125 C-115.00759817 54.72699117 -113.35586306 36.72699235 -111.34765625 27.93652344 C-108.18468929 18.82612927 -101.8745516 11.35489725 -94.9921875 4.7578125 C-94.31800781 4.05269531 -93.64382812 3.34757812 -92.94921875 2.62109375 C-69.45355878 -20.52191091 -25.31866073 -18.97246901 0 0 Z " fill="#FC5722" transform="translate(322.9921875,432.2421875)"/>
<path d="M0 0 C1.39752754 -0.00422974 1.39752754 -0.00422974 2.82328796 -0.00854492 C4.36973999 -0.00550858 4.36973999 -0.00550858 5.94743347 -0.00241089 C7.02736069 -0.00416321 8.1072879 -0.00591553 9.21994019 -0.00772095 C12.81946892 -0.01214943 16.41894908 -0.00919412 20.01847839 -0.00582886 C22.52504485 -0.00650254 25.03161125 -0.00747311 27.53817749 -0.00872803 C32.81522803 -0.01020709 38.09226115 -0.00814266 43.36930847 -0.00338745 C48.75505987 0.00141056 54.1407837 0.00149317 59.52653503 -0.00338745 C66.04406015 -0.00924079 72.56156516 -0.01006439 79.07909203 -0.00683212 C81.54942009 -0.00617155 84.01974903 -0.00696036 86.49007607 -0.00931168 C98.10341493 -0.01792414 109.70006531 0.02281393 121.30241394 0.57278442 C122.14499913 0.61150602 122.98758432 0.65022762 123.8557024 0.6901226 C129.55958727 1.00012377 129.55958727 1.00012377 130.68644714 2.12698364 C130.82581481 4.0735299 130.89606867 6.02505628 130.93937683 7.97610474 C130.96900513 9.2276535 130.99863342 10.47920227 131.02915955 11.76867676 C131.05610718 13.14591404 131.0824807 14.52316266 131.10832214 15.90042114 C131.12218208 16.59081104 131.13604202 17.28120094 131.15032196 17.99251175 C131.22364621 21.64630182 131.29120037 25.30014522 131.35392761 28.95413208 C131.41984029 32.7330917 131.50444276 36.5113867 131.59350204 40.28986168 C131.65858563 43.1910294 131.71007523 46.09232416 131.75783539 48.99382401 C131.78310731 50.38699012 131.81347687 51.78007333 131.84900665 53.17301559 C131.89738549 55.12139813 131.92472686 57.0702688 131.95109558 59.01907349 C131.9725061 60.12858368 131.99391663 61.23809387 132.01597595 62.38122559 C131.68644714 65.12698364 131.68644714 65.12698364 130.38639832 67.00068665 C127.47099674 68.93227626 124.22501382 68.21139571 120.88957214 67.90432739 C120.11261993 67.84461258 119.33566772 67.78489777 118.53517151 67.72337341 C116.0003632 67.52206489 113.4687416 67.29515186 110.93644714 67.06448364 C109.64175507 66.95287903 109.64175507 66.95287903 108.32090759 66.83901978 C76.20720221 64.0660012 41.42800333 59.16493322 15.68644714 38.12698364 C14.61523621 37.29940552 14.61523621 37.29940552 13.52238464 36.45510864 C5.01435092 29.55670292 -3.08112178 19.05526531 -5.31355286 8.12698364 C-5.3926035 5.79498977 -5.40154055 3.45865742 -5.31355286 1.12698364 C-3.74084697 -0.44572224 -2.18474822 0.0010122 0 0 Z " fill="#FD5722" transform="translate(25.313552856445313,264.8730163574219)"/>
<path d="M0 0 C1.06363518 -0.00262848 1.06363518 -0.00262848 2.14875793 -0.00531006 C4.49828522 -0.00971993 6.84773754 -0.00679362 9.19726562 -0.00341797 C10.82629409 -0.00409126 12.45532246 -0.00506149 14.08435059 -0.00631714 C17.50074214 -0.00779294 20.91710757 -0.00564332 24.33349609 -0.00097656 C28.71862619 0.00472066 33.10369509 0.00144103 37.48882294 -0.00454903 C40.85333723 -0.00815781 44.21783696 -0.00701459 47.58235168 -0.00442123 C49.19952909 -0.00375284 50.8167078 -0.00457733 52.43388367 -0.00690079 C54.69163533 -0.00943249 56.94928705 -0.00557939 59.20703125 0 C61.13657654 0.00119339 61.13657654 0.00119339 63.10510254 0.00241089 C66.10351562 0.12939453 66.10351562 0.12939453 68.10351562 1.12939453 C69.51179216 6.28412308 69.28742129 11.51525196 69.29101562 16.81689453 C69.30326172 17.77917969 69.31550781 18.74146484 69.328125 19.73291016 C69.33005859 20.65136719 69.33199219 21.56982422 69.33398438 22.51611328 C69.33809326 23.35360107 69.34220215 24.19108887 69.34643555 25.05395508 C69.10351562 27.12939453 69.10351562 27.12939453 67.10351562 29.12939453 C64.11183167 29.37663269 64.11183167 29.37663269 60.22290039 29.37231445 C59.51541656 29.3742128 58.80793274 29.37611115 58.07901001 29.37806702 C55.73420216 29.38177954 53.38970233 29.37106289 51.04492188 29.35986328 C49.41828956 29.35867148 47.79165654 29.35821832 46.1650238 29.35847473 C42.75279442 29.35690897 39.34066982 29.34861317 35.9284668 29.33520508 C31.55239566 29.31822859 27.17643991 29.31439033 22.8003397 29.31515026 C19.44006751 29.31487841 16.07982059 29.30939454 12.71955681 29.30214882 C11.10599903 29.29896412 9.49243839 29.29699521 7.87887764 29.29625511 C5.62371057 29.29408869 3.36866614 29.2853375 1.11352539 29.2746582 C-0.17061752 29.27084641 -1.45476044 29.26703461 -2.77781677 29.2631073 C-5.89648438 29.12939453 -5.89648438 29.12939453 -8.89648438 28.12939453 C-8.89648438 19.21939453 -8.89648438 10.30939453 -8.89648438 1.12939453 C-5.94136861 -0.34816335 -3.29810655 0.00203982 0 0 Z " fill="#FB5723" transform="translate(135.896484375,467.87060546875)"/>
<path d="M0 0 C0.73020355 -0.00175232 1.4604071 -0.00350464 2.21273804 -0.00531006 C4.63200236 -0.00971982 7.05119389 -0.00679396 9.47045898 -0.00341797 C11.14672357 -0.00409119 12.82298807 -0.00506136 14.49925232 -0.00631714 C18.01399667 -0.00779286 21.52871563 -0.00564329 25.04345703 -0.00097656 C29.5587214 0.00472504 34.07392638 0.0014382 38.58918858 -0.00454903 C42.05059765 -0.00815427 45.51199253 -0.0070163 48.97340202 -0.00442123 C50.63885442 -0.00375209 52.30430808 -0.00457995 53.96975899 -0.00690079 C56.2923743 -0.00942719 58.614892 -0.00558713 60.9375 0 C61.63206802 -0.00202423 62.32663605 -0.00404846 63.04225159 -0.00613403 C67.78978905 0.01513085 67.78978905 0.01513085 68.90405273 1.12939453 C69.15747509 5.43587089 69.08927912 9.75384507 69.09155273 14.06689453 C69.10379883 15.28570312 69.11604492 16.50451172 69.12866211 17.76025391 C69.1305957 18.92234375 69.1325293 20.08443359 69.13452148 21.28173828 C69.13863037 22.35415771 69.14273926 23.42657715 69.14697266 24.53149414 C68.90405273 27.12939453 68.90405273 27.12939453 66.90405273 29.12939453 C63.86767578 29.37663269 63.86767578 29.37663269 59.91577148 29.37231445 C59.1969278 29.3742128 58.47808411 29.37611115 57.73745728 29.37806702 C55.35537902 29.38177925 52.97360401 29.37106432 50.59155273 29.35986328 C48.94010453 29.3586716 47.28865564 29.35821829 45.63720703 29.35847473 C42.17370367 29.35690909 38.71030356 29.34861337 35.24682617 29.33520508 C30.80115477 29.31821512 26.35559692 29.3143907 21.90989685 29.31515026 C18.49905304 29.31487868 15.0882342 29.30939935 11.67739868 29.30214882 C10.03789458 29.29896052 8.39838765 29.29699437 6.75888062 29.29625511 C4.46998246 29.29409325 2.18120609 29.28535237 -0.10766602 29.2746582 C-1.41179443 29.27084641 -2.71592285 29.26703461 -4.05957031 29.2631073 C-7.09594727 29.12939453 -7.09594727 29.12939453 -9.09594727 28.12939453 C-9.09594727 19.21939453 -9.09594727 10.30939453 -9.09594727 1.12939453 C-6.16386358 -0.33664731 -3.21341689 -0.00939247 0 0 Z " fill="#FC5722" transform="translate(361.095947265625,467.87060546875)"/>
<path d="M0 0 C1.63229065 -0.00391162 1.63229065 -0.00391162 3.29755688 -0.00790226 C5.11312824 -0.00455618 5.11312824 -0.00455618 6.96537781 -0.0011425 C8.239595 -0.00270249 9.5138122 -0.00426248 10.82664204 -0.00586975 C14.37975194 -0.0100675 17.93283519 -0.00797038 21.48594522 -0.00488353 C25.3114786 -0.00263145 29.13700722 -0.00610808 32.96253967 -0.00886345 C40.46319065 -0.01332221 47.96383165 -0.01234421 55.46448302 -0.00945081 C61.55760642 -0.00719719 67.65072701 -0.00688407 73.74385071 -0.00797462 C74.6093392 -0.00812786 75.4748277 -0.00828109 76.36654311 -0.00843897 C78.12447985 -0.00875868 79.88241659 -0.00908289 81.64035332 -0.00941156 C98.14470327 -0.01226666 114.64904768 -0.00897886 131.15339673 -0.00361119 C145.33087953 0.00085687 159.50835414 0.00008095 173.68583679 -0.00452995 C190.12903446 -0.00987518 206.57222727 -0.01199197 223.01542568 -0.00891769 C224.76708412 -0.00859912 226.51874256 -0.00828475 228.270401 -0.00797462 C229.56335106 -0.00774321 229.56335106 -0.00774321 230.88242131 -0.00750712 C236.9718931 -0.00664181 243.06136182 -0.00810514 249.15083313 -0.01045418 C256.56659687 -0.01325181 263.98235002 -0.0125147 271.39811254 -0.00717343 C275.18549765 -0.00453592 278.97286508 -0.0035322 282.76025009 -0.00682259 C286.8564736 -0.0103276 290.95265199 -0.0061574 295.0488739 -0.0011425 C296.25925481 -0.00337322 297.46963572 -0.00560395 298.71669483 -0.00790226 C299.8048886 -0.00529452 300.89308237 -0.00268677 302.01425171 0 C302.96111186 0.00016235 303.90797201 0.0003247 304.88352489 0.00049198 C307.00712585 0.12584114 307.00712585 0.12584114 308.00712585 1.12584114 C309.15277159 9.55837988 309.24637764 18.12904796 309.31962585 26.62584114 C309.34862976 27.77826302 309.37763367 28.93068489 309.40751648 30.11802864 C309.41589539 31.22404427 309.42427429 32.33005989 309.4329071 33.46959114 C309.45478088 34.95749153 309.45478088 34.95749153 309.47709656 36.47545052 C308.86950806 39.90193403 307.71660237 41.00030353 305.00712585 43.12584114 C302.94828796 44.14659309 302.94828796 44.14659309 300.7844696 44.86412239 C299.99878601 45.12644661 299.21310242 45.38877083 298.40361023 45.65904427 C297.59214539 45.91621223 296.78068054 46.1733802 295.94462585 46.43834114 C295.12929382 46.71484505 294.31396179 46.99134895 293.47392273 47.27623177 C287.40124182 49.25721313 287.40124182 49.25721313 284.00712585 48.12584114 C296.23929245 41.55783051 296.23929245 41.55783051 303.00712585 41.12584114 C304.49212585 40.63084114 304.49212585 40.63084114 306.00712585 40.12584114 C305.67712585 27.58584114 305.34712585 15.04584114 305.00712585 2.12584114 C203.03712585 2.12584114 101.06712585 2.12584114 -3.99287415 2.12584114 C-3.66287415 28.52584114 -3.33287415 54.92584114 -2.99287415 82.12584114 C-0.68287415 83.11584114 1.62712585 84.10584114 4.00712585 85.12584114 C4.70461169 86.44331438 5.37672542 87.77498307 6.00712585 89.12584114 C7.66327243 89.50802881 9.3316961 89.83979216 11.00712585 90.12584114 C13.47902437 92.06804711 13.98625421 93.06322622 15.00712585 96.12584114 C16.49212585 96.62084114 16.49212585 96.62084114 18.00712585 97.12584114 C22.34127342 100.5570413 24.08873018 106.1084986 26.00712585 111.12584114 C23.76671958 108.95332596 21.57455427 106.82640918 19.60868835 104.39927864 C13.59231498 96.97806681 5.46153919 89.94095144 -3.06526184 85.54013252 C-5.99287415 83.12584114 -5.99287415 83.12584114 -6.72113037 79.53851509 C-6.74151226 78.07920357 -6.72875989 76.61920126 -6.68989563 75.16026497 C-6.69237808 74.36149437 -6.69486053 73.56272377 -6.69741821 72.739748 C-6.69833556 70.10315456 -6.65655441 67.46909292 -6.6139679 64.83287239 C-6.60531355 63.00253472 -6.59916772 61.17218361 -6.59542847 59.3418293 C-6.57820031 54.52653212 -6.52407054 49.71230116 -6.46315002 44.89738655 C-6.4195007 40.95667368 -6.401994 37.01604864 -6.38587856 33.07514095 C-6.36631399 28.39015561 -6.33572435 23.7052712 -6.3014679 19.02037239 C-6.2950421 18.12112352 -6.28861629 17.22187466 -6.28199577 16.29537582 C-6.26110919 13.76455585 -6.23281728 11.23394508 -6.20161438 8.70323372 C-6.19578339 7.94635262 -6.18995239 7.18947151 -6.1839447 6.40965462 C-6.09633955 0.431119 -5.91254731 0.00101379 0 0 Z " fill="#D15A33" transform="translate(168.9928741455078,248.87415885925293)"/>
<path d="M0 0 C6.62177926 0.30656385 11.22125154 1.74288723 17 5 C16.46454733 12.33664099 14.33849495 19.14775977 12.18920898 26.14624023 C11.56136782 28.19118762 10.94298722 30.2388123 10.32617188 32.28710938 C7.05537818 43.07600615 7.05537818 43.07600615 5 48 C-0.87249875 48.37484035 -5.56364042 47.25153948 -11 45 C-11.33 44.67 -11.66 44.34 -12 44 C-11.53043177 38.3798553 -10.3777515 33.23624485 -8.75 27.8515625 C-8.53182617 27.1129599 -8.31365234 26.3743573 -8.08886719 25.6133728 C-7.63117869 24.06803982 -7.17053192 22.52358013 -6.70703125 20.97998047 C-5.99616275 18.61221887 -5.29419881 16.24195645 -4.59375 13.87109375 C-4.14634202 12.36443218 -3.69844305 10.85791631 -3.25 9.3515625 C-2.93434082 8.28912827 -2.93434082 8.28912827 -2.61230469 7.20523071 C-1.11764614 2.23529227 -1.11764614 2.23529227 0 0 Z " fill="#FA5723" transform="translate(122,57)"/>
<path d="M0 0 C1.39752754 -0.00422974 1.39752754 -0.00422974 2.82328796 -0.00854492 C4.36973999 -0.00550858 4.36973999 -0.00550858 5.94743347 -0.00241089 C7.02736069 -0.00416321 8.1072879 -0.00591553 9.21994019 -0.00772095 C12.81946892 -0.01214943 16.41894908 -0.00919412 20.01847839 -0.00582886 C22.52504485 -0.00650254 25.03161125 -0.00747311 27.53817749 -0.00872803 C32.81522803 -0.01020709 38.09226115 -0.00814266 43.36930847 -0.00338745 C48.75505987 0.00141056 54.1407837 0.00149317 59.52653503 -0.00338745 C66.04406015 -0.00924079 72.56156516 -0.01006439 79.07909203 -0.00683212 C81.54942009 -0.00617155 84.01974903 -0.00696036 86.49007607 -0.00931168 C98.10341493 -0.01792414 109.70006531 0.02281393 121.30241394 0.57278442 C122.14499913 0.61150602 122.98758432 0.65022762 123.8557024 0.6901226 C129.55958727 1.00012377 129.55958727 1.00012377 130.68644714 2.12698364 C130.82581481 4.0735299 130.89606867 6.02505628 130.93937683 7.97610474 C130.96900513 9.2276535 130.99863342 10.47920227 131.02915955 11.76867676 C131.05610718 13.14591404 131.0824807 14.52316266 131.10832214 15.90042114 C131.12218208 16.59081104 131.13604202 17.28120094 131.15032196 17.99251175 C131.22364621 21.64630182 131.29120037 25.30014522 131.35392761 28.95413208 C131.41984029 32.7330917 131.50444276 36.5113867 131.59350204 40.28986168 C131.65858563 43.1910294 131.71007523 46.09232416 131.75783539 48.99382401 C131.78310731 50.38699012 131.81347687 51.78007333 131.84900665 53.17301559 C131.89738549 55.12139813 131.92472686 57.0702688 131.95109558 59.01907349 C131.9725061 60.12858368 131.99391663 61.23809387 132.01597595 62.38122559 C131.68644714 65.12698364 131.68644714 65.12698364 130.39135742 67.00167847 C127.4337566 68.95380672 124.09319304 68.18827825 120.71379089 67.86917114 C119.91727615 67.80545319 119.12076141 67.74173523 118.30010986 67.67608643 C116.60394911 67.53710883 114.90841436 67.39030631 113.21354675 67.23635864 C110.68676462 67.00766902 108.15901973 66.80331895 105.62980652 66.60354614 C94.53509444 65.6860886 83.63597895 64.12411481 72.68644714 62.12698364 C74.68644714 60.12698364 74.68644714 60.12698364 77.68644714 59.93948364 C80.68644714 60.12698364 80.68644714 60.12698364 82.68644714 61.12698364 C85.01667193 61.33259171 87.35101012 61.49298316 89.68644714 61.62698364 C96.46422492 62.01587253 96.46422492 62.01587253 98.68644714 63.12698364 C108.58644714 63.78698364 118.48644714 64.44698364 128.68644714 65.12698364 C128.68644714 44.66698364 128.68644714 24.20698364 128.68644714 3.12698364 C124.38742371 3.28940552 120.08840027 3.45182739 115.65910339 3.61917114 C95.55918104 4.29216881 75.4593994 4.27983685 55.3502655 4.25735474 C50.096596 4.25156363 44.84297656 4.25501407 39.58930874 4.2609272 C35.49463521 4.2645381 31.39997364 4.26339339 27.30529976 4.26079941 C25.3656978 4.26013646 23.42609472 4.26093626 21.48649406 4.26327896 C18.79717471 4.26582454 16.10793808 4.2619423 13.41862488 4.25637817 C12.24138351 4.25941452 12.24138351 4.25941452 11.0403595 4.26251221 C6.48844409 4.24510752 2.17814165 3.87489953 -2.31355286 3.12698364 C-2.31355286 4.11698364 -2.31355286 5.10698364 -2.31355286 6.12698364 C-1.32355286 6.12698364 -0.33355286 6.12698364 0.68644714 6.12698364 C0.35644714 9.09698364 0.02644714 12.06698364 -0.31355286 15.12698364 C0.67644714 15.45698364 1.66644714 15.78698364 2.68644714 16.12698364 C3.63495132 18.41041963 4.20791693 20.70775093 4.84269714 23.09573364 C5.12113464 23.76604614 5.39957214 24.43635864 5.68644714 25.12698364 C6.67644714 25.45698364 7.66644714 25.78698364 8.68644714 26.12698364 C8.68644714 26.78698364 8.68644714 27.44698364 8.68644714 28.12698364 C10.33644714 27.46698364 11.98644714 26.80698364 13.68644714 26.12698364 C14.76854663 29.37328211 14.4678559 30.00134862 13.68644714 33.12698364 C14.01644714 34.11698364 14.34644714 35.10698364 14.68644714 36.12698364 C6.35232168 32.89341995 0.16397297 22.05052634 -3.47370911 14.28323364 C-5.22053127 9.79836929 -5.49596402 5.96087958 -5.31355286 1.12698364 C-3.74084697 -0.44572224 -2.18474822 0.0010122 0 0 Z " fill="#E9552C" transform="translate(25.313552856445313,264.8730163574219)"/>
<path d="M0 0 C0.73020355 -0.00175232 1.4604071 -0.00350464 2.21273804 -0.00531006 C4.63200236 -0.00971982 7.05119389 -0.00679396 9.47045898 -0.00341797 C11.14672357 -0.00409119 12.82298807 -0.00506136 14.49925232 -0.00631714 C18.01399667 -0.00779286 21.52871563 -0.00564329 25.04345703 -0.00097656 C29.5587214 0.00472504 34.07392638 0.0014382 38.58918858 -0.00454903 C42.05059765 -0.00815427 45.51199253 -0.0070163 48.97340202 -0.00442123 C50.63885442 -0.00375209 52.30430808 -0.00457995 53.96975899 -0.00690079 C56.2923743 -0.00942719 58.614892 -0.00558713 60.9375 0 C61.63206802 -0.00202423 62.32663605 -0.00404846 63.04225159 -0.00613403 C67.78978905 0.01513085 67.78978905 0.01513085 68.90405273 1.12939453 C69.15747509 5.43587089 69.08927912 9.75384507 69.09155273 14.06689453 C69.10379883 15.28570312 69.11604492 16.50451172 69.12866211 17.76025391 C69.1305957 18.92234375 69.1325293 20.08443359 69.13452148 21.28173828 C69.13863037 22.35415771 69.14273926 23.42657715 69.14697266 24.53149414 C68.90405273 27.12939453 68.90405273 27.12939453 66.90405273 29.12939453 C65.06906128 29.36990356 65.06906128 29.36990356 62.8215332 29.35644531 C61.56045242 29.35621872 61.56045242 29.35621872 60.27389526 29.35598755 C59.3655191 29.34566498 58.45714294 29.33534241 57.52124023 29.32470703 C56.12713425 29.32046219 56.12713425 29.32046219 54.7048645 29.31613159 C51.72946424 29.30491522 48.75436238 29.27980814 45.77905273 29.25439453 C43.76473416 29.24436661 41.75041087 29.23524043 39.73608398 29.22705078 C34.79195817 29.20497114 29.84805609 29.17043146 24.90405273 29.12939453 C29.03996717 26.81191935 32.74606931 26.87332128 37.38842773 26.93408203 C38.20402161 26.93691193 39.01961548 26.93974182 39.85992432 26.94265747 C42.45811802 26.95382895 45.05596368 26.97892778 47.65405273 27.00439453 C49.41837066 27.01442826 51.18269401 27.02355343 52.94702148 27.03173828 C57.26627301 27.05205461 61.58477449 27.09120838 65.90405273 27.12939453 C65.57405273 19.20939453 65.24405273 11.28939453 64.90405273 3.12939453 C41.14405273 2.79939453 17.38405273 2.46939453 -7.09594727 2.12939453 C-7.09594727 10.37939453 -7.09594727 18.62939453 -7.09594727 27.12939453 C3.13405273 27.12939453 13.36405273 27.12939453 23.90405273 27.12939453 C23.90405273 27.45939453 23.90405273 27.78939453 23.90405273 28.12939453 C15.96223621 28.76839126 8.06015613 29.23250276 0.09155273 29.25439453 C-0.59551758 29.25890625 -1.28258789 29.26341797 -1.99047852 29.26806641 C-6.84798359 29.25337637 -6.84798359 29.25337637 -9.09594727 28.12939453 C-9.09594727 19.21939453 -9.09594727 10.30939453 -9.09594727 1.12939453 C-6.16386358 -0.33664731 -3.21341689 -0.00939247 0 0 Z " fill="#D16442" transform="translate(361.095947265625,467.87060546875)"/>
<path d="M0 0 C1.06845406 -0.00021904 1.06845406 -0.00021904 2.15849304 -0.0004425 C4.51763941 0.00025528 6.87670724 0.00804142 9.23583984 0.01586914 C10.86965898 0.0177338 12.50347868 0.01915747 14.13729858 0.02015686 C18.44125914 0.0239783 22.74518605 0.03380541 27.0491333 0.04486084 C31.43948918 0.05508297 35.82985049 0.0596562 40.22021484 0.06469727 C48.8374178 0.075428 57.45459339 0.09249996 66.07177734 0.11352539 C66.07177734 0.44352539 66.07177734 0.77352539 66.07177734 1.11352539 C41.98177734 1.44352539 17.89177734 1.77352539 -6.92822266 2.11352539 C-6.59822266 9.70352539 -6.26822266 17.29352539 -5.92822266 25.11352539 C-4.07213379 25.13858154 -2.21604492 25.1636377 -0.30371094 25.18945312 C5.86297838 25.2737127 12.02960078 25.36196117 18.1961956 25.45286465 C21.93106288 25.507778 25.66593828 25.56114331 29.40087891 25.61083984 C33.01249341 25.65895457 36.62402495 25.71130669 40.23553848 25.76646614 C41.60604888 25.78667867 42.97658182 25.80542325 44.34713364 25.82259941 C51.98456497 25.91935346 59.48417442 26.21993091 67.07177734 27.11352539 C67.07177734 20.51352539 67.07177734 13.91352539 67.07177734 7.11352539 C67.73177734 7.11352539 68.39177734 7.11352539 69.07177734 7.11352539 C69.12968088 10.40511855 69.16533995 13.69658142 69.19677734 16.98852539 C69.21353516 17.92567383 69.23029297 18.86282227 69.24755859 19.82836914 C69.25400391 20.72426758 69.26044922 21.62016602 69.26708984 22.54321289 C69.27756348 23.37062988 69.28803711 24.19804687 69.29882812 25.05053711 C69.07177734 27.11352539 69.07177734 27.11352539 67.07177734 29.11352539 C64.08009338 29.36076355 64.08009338 29.36076355 60.19116211 29.35644531 C59.48367828 29.35834366 58.77619446 29.360242 58.04727173 29.36219788 C55.70246388 29.3659104 53.35796405 29.35519375 51.01318359 29.34399414 C49.38655127 29.34280234 47.75991826 29.34234918 46.13328552 29.34260559 C42.72105614 29.34103983 39.30893154 29.33274403 35.89672852 29.31933594 C31.52065738 29.30235945 27.14470162 29.29852119 22.76860142 29.29928112 C19.40832923 29.29900927 16.04808231 29.2935254 12.68781853 29.28627968 C11.07426075 29.28309498 9.46070011 29.28112606 7.84713936 29.28038597 C5.59197228 29.27821955 3.33692786 29.26946836 1.08178711 29.25878906 C-0.2023558 29.25497726 -1.48649872 29.25116547 -2.80955505 29.24723816 C-5.92822266 29.11352539 -5.92822266 29.11352539 -8.92822266 28.11352539 C-8.92822266 19.20352539 -8.92822266 10.29352539 -8.92822266 1.11352539 C-5.96414707 -0.3685124 -3.307431 -0.00568287 0 0 Z " fill="#D8613F" transform="translate(135.92822265625,467.886474609375)"/>
<path d="M0 0 C0.33 0.99 0.66 1.98 1 3 C-0.375 4.5 -0.375 4.5 -2 6 C-2.66 6 -3.32 6 -4 6 C-4 6.66 -4 7.32 -4 8 C-5.64821244 9.03013277 -7.31503702 10.03114628 -9 11 C-9 11.33 -9 11.66 -9 12 C8.82 12 26.64 12 45 12 C45.66 10.35 46.32 8.7 47 7 C47.99 7.99 47.99 7.99 49 9 C47.8125 11.9375 47.8125 11.9375 46 15 C42.73986188 15.96216788 39.61630108 16.12603936 36.23242188 16.12939453 C35.31376343 16.13254669 34.39510498 16.13569885 33.4486084 16.13894653 C32.46525513 16.1369223 31.48190186 16.13489807 30.46875 16.1328125 C28.92749451 16.13424759 28.92749451 16.13424759 27.35510254 16.13571167 C25.17976826 16.13639154 23.00443193 16.13455071 20.82910156 16.13037109 C17.53966562 16.125064 14.25036896 16.13029987 10.9609375 16.13671875 C0.59825861 16.13967344 -9.6856045 16.11527577 -20 15 C-18.119074 10.67325497 -15.91725914 9.60769425 -11.6875 7.5 C-7.37434443 5.3360451 -3.67235188 3.1418245 0 0 Z " fill="#E35A33" transform="translate(159,446)"/>
<path d="M0 0 C1.79224173 0.01496988 3.58444049 0.03565447 5.37657166 0.06056213 C6.35207474 0.07016968 7.32757782 0.07977722 8.3326416 0.0896759 C11.57383658 0.12279442 14.8149021 0.16307749 18.05601501 0.2033844 C20.2966058 0.22767297 22.53720144 0.25151714 24.77780151 0.27493286 C30.68799861 0.33789953 36.59811017 0.40693031 42.50822449 0.47718811 C48.53388051 0.54775822 54.5595974 0.61264283 60.58531189 0.67799377 C72.41806105 0.80716819 84.2507277 0.94274356 96.08335876 1.08229065 C96.08335876 1.41229065 96.08335876 1.74229065 96.08335876 2.08229065 C47.57335876 2.57729065 47.57335876 2.57729065 -1.91664124 3.08229065 C-1.91664124 4.07229065 -1.91664124 5.06229065 -1.91664124 6.08229065 C-0.92664124 6.08229065 0.06335876 6.08229065 1.08335876 6.08229065 C0.75335876 9.05229065 0.42335876 12.02229065 0.08335876 15.08229065 C1.07335876 15.41229065 2.06335876 15.74229065 3.08335876 16.08229065 C4.03186294 18.36572663 4.60482855 20.66305793 5.23960876 23.05104065 C5.51804626 23.72135315 5.79648376 24.39166565 6.08335876 25.08229065 C7.07335876 25.41229065 8.06335876 25.74229065 9.08335876 26.08229065 C9.08335876 26.74229065 9.08335876 27.40229065 9.08335876 28.08229065 C10.73335876 27.42229065 12.38335876 26.76229065 14.08335876 26.08229065 C15.16545825 29.32858911 14.86476752 29.95665563 14.08335876 33.08229065 C14.41335876 34.07229065 14.74335876 35.06229065 15.08335876 36.08229065 C6.7492333 32.84872696 0.56088459 22.00583334 -3.07679749 14.23854065 C-4.82361965 9.75367629 -5.0990524 5.91618659 -4.91664124 1.08229065 C-3.91664124 0.08229065 -3.91664124 0.08229065 0 0 Z " fill="#D86B49" transform="translate(24.916641235351563,264.91770935058594)"/>
<path d="M0 0 C0.99 0.33 1.98 0.66 3 1 C3 1.66 3 2.32 3 3 C3.99811958 2.99666908 3.99811958 2.99666908 5.0164032 2.99327087 C11.94314029 2.97114426 18.86986734 2.95606252 25.79663086 2.94506836 C28.38159595 2.94004019 30.96655819 2.93321681 33.55151367 2.92456055 C37.2674225 2.91242871 40.98329372 2.9067565 44.69921875 2.90234375 C45.85459641 2.89718246 47.00997406 2.89202118 48.20036316 2.88670349 C49.28110611 2.88662796 50.36184906 2.88655243 51.4753418 2.88647461 C52.42354294 2.884254 53.37174408 2.88203339 54.34867859 2.87974548 C56.9949887 2.99977271 59.42118203 3.41007742 62 4 C62 3.01 62 2.02 62 1 C68.75 2.625 68.75 2.625 71 6 C69.17857867 7.82142133 66.324025 7.14673528 63.87548828 7.16113281 C62.56387726 7.17074036 61.25226624 7.1803479 59.90090942 7.19024658 C58.45737887 7.19509414 57.01384632 7.19937308 55.5703125 7.203125 C54.09919227 7.20887411 52.62807207 7.21463187 51.1569519 7.22039795 C48.06833546 7.23091751 44.97974513 7.23675379 41.89111328 7.24023438 C37.93078368 7.24571875 33.97079798 7.26974116 30.01057625 7.29820633 C26.97027577 7.31681912 23.9300583 7.32203759 20.88970566 7.32357025 C19.4296366 7.32660081 17.96956914 7.33464295 16.50955582 7.34775543 C14.46753975 7.36478438 12.42538255 7.36109545 10.38330078 7.35644531 C8.63909348 7.36191376 8.63909348 7.36191376 6.85964966 7.36749268 C4 7 4 7 2.14401245 5.61444092 C0.83508147 3.76726546 0.38251546 2.21858964 0 0 Z " fill="#EE5B31" transform="translate(349,455)"/>
<path d="M0 0 C6.62177926 0.30656385 11.22125154 1.74288723 17 5 C16.41427597 12.51214312 14.21423288 19.34343032 11.9375 26.5 C11.56044922 27.70398438 11.18339844 28.90796875 10.79492188 30.1484375 C9.86934066 33.1009244 8.93755706 36.05129861 8 39 C7.67 39 7.34 39 7 39 C6.79093886 33.87800196 7.4915265 29.88035544 9 25 C9.34578768 23.00211562 9.68143549 21.00240549 10 19 C10.33 18.01 10.66 17.02 11 16 C11.66 16 12.32 16 13 16 C13 14.68 13 13.36 13 12 C13.66 12 14.32 12 15 12 C15 10.02 15 8.04 15 6 C14.34 6 13.68 6 13 6 C13 5.34 13 4.68 13 4 C12.38511719 3.86722656 11.77023438 3.73445313 11.13671875 3.59765625 C10.32847656 3.42105469 9.52023438 3.24445312 8.6875 3.0625 C7.88699219 2.88847656 7.08648437 2.71445312 6.26171875 2.53515625 C4 2 4 2 1 1 C1.03480469 1.56847656 1.06960937 2.13695312 1.10546875 2.72265625 C1.30110726 8.30301198 0.46152904 11.89460644 -2 17 C-5.35862506 25.74760538 -7.53594706 34.97163213 -10 44 C-5.38 44.66 -0.76 45.32 4 46 C4 45.34 4 44.68 4 44 C4.66 44 5.32 44 6 44 C5.67 45.32 5.34 46.64 5 48 C-0.87249875 48.37484035 -5.56364042 47.25153948 -11 45 C-11.33 44.67 -11.66 44.34 -12 44 C-11.53043177 38.3798553 -10.3777515 33.23624485 -8.75 27.8515625 C-8.53182617 27.1129599 -8.31365234 26.3743573 -8.08886719 25.6133728 C-7.63117869 24.06803982 -7.17053192 22.52358013 -6.70703125 20.97998047 C-5.99616275 18.61221887 -5.29419881 16.24195645 -4.59375 13.87109375 C-4.14634202 12.36443218 -3.69844305 10.85791631 -3.25 9.3515625 C-2.93434082 8.28912827 -2.93434082 8.28912827 -2.61230469 7.20523071 C-1.11764614 2.23529227 -1.11764614 2.23529227 0 0 Z " fill="#DC6344" transform="translate(122,57)"/>
<path d="M0 0 C0.66 0.33 1.32 0.66 2 1 C1.84144531 1.68707031 1.68289063 2.37414062 1.51953125 3.08203125 C-1.64166116 20.83699914 3.2498146 40.03587455 13 55 C16.36216694 59.606645 20.15653508 63.79528491 24 68 C25.06789612 69.30811329 26.13155201 70.61972295 27.1875 71.9375 C30.29595769 75.58378468 34.07933046 78.28339395 38 81 C34.80389448 81 33.58282374 80.45328458 30.8125 79 C30.09707031 78.62875 29.38164062 78.2575 28.64453125 77.875 C28.10183594 77.58625 27.55914062 77.2975 27 77 C27 76.34 27 75.68 27 75 C26.01 75 25.02 75 24 75 C22.61328125 73.3203125 22.61328125 73.3203125 21.3125 71.125 C20.87550781 70.40570313 20.43851562 69.68640625 19.98828125 68.9453125 C19 67 19 67 19 65 C18.4225 64.9175 17.845 64.835 17.25 64.75 C14.24166488 63.74722163 12.95292984 62.49166911 11 60 C10.25 56.75 10.25 56.75 10 54 C9.01 54 8.02 54 7 54 C2.45320067 50.14210966 2.15000177 45.43879817 1.39453125 39.83984375 C1.07754096 37.11696937 1.07754096 37.11696937 0.453125 34.98828125 C-0.1421422 32.37628982 -0.09434711 29.92515719 -0.0625 27.25 C-0.05347656 26.26515625 -0.04445313 25.2803125 -0.03515625 24.265625 C-0.02355469 23.51796875 -0.01195312 22.7703125 0 22 C-0.66 21.67 -1.32 21.34 -2 21 C-1.85845864 18.43719792 -1.71191438 15.87484515 -1.5625 13.3125 C-1.52318359 12.59126953 -1.48386719 11.87003906 -1.44335938 11.12695312 C-1.21814322 7.33292718 -0.87160695 3.71348508 0 0 Z " fill="#E16039" transform="translate(357,363)"/>
<path d="M0 0 C23.76 0 47.52 0 72 0 C72 0.99 72 1.98 72 3 C70.68 2.67 69.36 2.34 68 2 C67.67 2.66 67.34 3.32 67 4 C66.01 4 65.02 4 64 4 C64 3.01 64 2.02 64 1 C43.21 1 22.42 1 1 1 C1 8.59 1 16.18 1 24 C2.65 23.67 4.3 23.34 6 23 C7.97195196 22.91573659 9.94641918 22.88219842 11.92016602 22.88647461 C13.08810196 22.88655014 14.2560379 22.88662567 15.45936584 22.88670349 C16.71156418 22.89186478 17.96376251 22.89702606 19.25390625 22.90234375 C20.54691147 22.9037587 21.83991669 22.90517365 23.17210388 22.90663147 C26.60153151 22.91043794 30.03091636 22.92024705 33.46032715 22.93133545 C36.94685289 22.94155957 40.43338545 22.94613928 43.91992188 22.95117188 C50.05088213 22.96072829 56.18181822 22.97521502 62.3127594 22.99327087 C67.72453062 23.01766599 67.72453062 23.01766599 73 22 C73 22.99 73 23.98 73 25 C71.35801636 25.03758423 71.35801636 25.03758423 69.68286133 25.07592773 C65.61064517 25.17030008 61.53858774 25.27044731 57.46655273 25.37231445 C55.70617392 25.41555069 53.94575622 25.4572335 52.18530273 25.49731445 C49.65075987 25.55529185 47.11641066 25.61890627 44.58203125 25.68359375 C43.40674614 25.70866249 43.40674614 25.70866249 42.2077179 25.73423767 C38.3667745 25.83770807 34.73820878 26.08578184 31 27 C31 26.34 31 25.68 31 25 C20.77 25 10.54 25 0 25 C0 16.75 0 8.5 0 0 Z " fill="#F15B2C" transform="translate(354,470)"/>
<path d="M0 0 C0.495 0.99 0.495 0.99 1 2 C-1.31 2 -3.62 2 -6 2 C-5.67 1.01 -5.34 0.02 -5 -1 C-6.0725 -0.608125 -7.145 -0.21625 -8.25 0.1875 C-12 1 -12 1 -14.4375 -0.25 C-16 -2 -16 -2 -16 -4 C-17.98 -4 -19.96 -4 -22 -4 C-22 -4.99 -22 -5.98 -22 -7 C-23.093125 -6.979375 -24.18625 -6.95875 -25.3125 -6.9375 C-29 -7 -29 -7 -32 -8 C-44.6139899 -8.86956688 -56.84961544 -8.54233266 -69 -5 C-70.99581052 -4.64243676 -72.99514789 -4.30278558 -75 -4 C-72.42178861 -6.57821139 -70.17300626 -7.02434808 -66.6875 -8.0625 C-65.55699219 -8.40410156 -64.42648438 -8.74570312 -63.26171875 -9.09765625 C-41.54545542 -15.10538898 -19.11545638 -11.19823378 0 0 Z " fill="#E5572F" transform="translate(320,430)"/>
<path d="M0 0 C0.33 0 0.66 0 1 0 C1.20013749 8.16204893 1.38386391 16.32423112 1.54658794 24.48710346 C1.6226626 28.27736611 1.70440768 32.0673302 1.79907227 35.85717773 C1.89020345 39.51389492 1.96649092 43.17064701 2.03244972 46.82790184 C2.0602437 48.22387446 2.09340558 49.61975076 2.13199425 51.01546669 C2.18508492 52.96871779 2.21741124 54.92250001 2.2487793 56.8762207 C2.27320602 57.9887471 2.29763275 59.1012735 2.32279968 60.24751282 C2 63 2 63 0.7059021 64.87568665 C-2.25303878 66.82584354 -5.59296698 66.06132173 -8.97265625 65.7421875 C-9.76917099 65.67846954 -10.56568573 65.61475159 -11.38633728 65.54910278 C-13.08249804 65.41012519 -14.77803278 65.26332267 -16.47290039 65.109375 C-18.99968252 64.88068538 -21.52742741 64.67633531 -24.05664062 64.4765625 C-35.1513527 63.55910496 -46.05046819 61.99713117 -57 60 C-55 58 -55 58 -52 57.8125 C-49 58 -49 58 -47 59 C-44.66977522 59.20560807 -42.33543702 59.36599952 -40 59.5 C-33.22222222 59.88888889 -33.22222222 59.88888889 -31 61 C-20.77 61.66 -10.54 62.32 0 63 C0 42.21 0 21.42 0 0 Z " fill="#CF5B3D" transform="translate(155,267)"/>
<path d="M0 0 C0.33 0 0.66 0 1 0 C1.0154612 1.4115461 1.0154612 1.4115461 1.03123474 2.85160828 C1.12903039 11.72394879 1.23177024 20.59622013 1.33933926 29.46844769 C1.39448165 34.02964089 1.44788762 38.5908406 1.49731445 43.15209961 C1.54508627 47.55471579 1.59743343 51.95725606 1.65294075 56.35978127 C1.67330632 58.03865478 1.6920288 59.71754907 1.70907402 61.39645958 C1.73324678 63.7496528 1.76328318 66.10270411 1.79467773 68.45581055 C1.8004332 69.1484903 1.80618866 69.84117004 1.81211853 70.55484009 C1.86977308 75.85898805 1.86977308 75.85898805 3 81 C5.31104818 82.05047644 7.64583651 83.05007438 10 84 C10.69748583 85.31747324 11.36959957 86.64914193 12 88 C13.65614657 88.38218767 15.32457024 88.71395102 17 89 C19.47189851 90.94220597 19.97912836 91.93738507 21 95 C22.485 95.495 22.485 95.495 24 96 C28.33414756 99.43120015 30.08160432 104.98265746 32 110 C29.75959372 107.82748482 27.56742842 105.70056804 25.6015625 103.2734375 C19.58589854 95.85310074 11.45435502 88.81241154 2.92662048 84.4152832 C0 82 0 82 -0.7215271 78.40594482 C-0.73887109 76.94352237 -0.72306754 75.48047923 -0.68115234 74.01855469 C-0.6820285 73.2181778 -0.68290466 72.4178009 -0.68380737 71.59317017 C-0.67963225 68.95174007 -0.63298799 66.31286042 -0.5859375 63.671875 C-0.57474499 61.83914579 -0.56620506 60.00639861 -0.56021118 58.17364502 C-0.53731698 53.35301022 -0.47838901 48.53346251 -0.4119873 43.71325684 C-0.35057729 38.79336249 -0.32319893 33.87329224 -0.29296875 28.953125 C-0.22864607 19.30160606 -0.12625964 9.65089347 0 0 Z " fill="#D36547" transform="translate(163,250)"/>
<path d="M0 0 C0.75414688 0.00202423 1.50829376 0.00404846 2.28529358 0.00613403 C3.4413485 0.00469894 3.4413485 0.00469894 4.62075806 0.00323486 C6.25413596 0.00255305 7.88751655 0.00440745 9.52088928 0.00857544 C12.02510155 0.01391646 14.52913386 0.00863429 17.03334045 0.00222778 C18.61732523 0.00288871 20.20130989 0.00417017 21.78529358 0.00613403 C22.53741623 0.0041098 23.28953888 0.00208557 24.06445312 0 C29.37178734 0.02399029 29.37178734 0.02399029 31.60169983 1.13894653 C33.13838848 1.36362484 34.68138037 1.54691459 36.22669983 1.70144653 C37.04396545 1.7852356 37.86123108 1.86902466 38.70326233 1.95535278 C39.3297467 2.01593872 39.95623108 2.07652466 40.60169983 2.13894653 C40.60169983 2.79894653 40.60169983 3.45894653 40.60169983 4.13894653 C43.57169983 4.63394653 43.57169983 4.63394653 46.60169983 5.13894653 C43.422454 6.1603332 41.44842119 6.04529424 38.22669983 5.26394653 C20.88074505 1.855049 1.05438814 1.87977464 -16.19908142 5.83425903 C-18.56963369 6.16268368 -20.13905543 5.87307183 -22.39830017 5.13894653 C-21.40830017 5.13894653 -20.41830017 5.13894653 -19.39830017 5.13894653 C-19.39830017 4.47894653 -19.39830017 3.81894653 -19.39830017 3.13894653 C-18.00804626 2.93978638 -18.00804626 2.93978638 -16.58970642 2.73660278 C-15.39216736 2.56000122 -14.1946283 2.38339966 -12.96080017 2.20144653 C-11.76583923 2.0274231 -10.5708783 1.85339966 -9.33970642 1.67410278 C-0.14178969 0.00064383 -0.14178969 0.00064383 0 0 Z " fill="#E9582B" transform="translate(266.39830017089844,478.8610534667969)"/>
<path d="M0 0 C1 2 1 2 0.29296875 4.42578125 C-0.07183594 5.37839844 -0.43664062 6.33101563 -0.8125 7.3125 C-1.16957031 8.25738281 -1.52664062 9.20226562 -1.89453125 10.17578125 C-2.9173889 12.78894762 -3.95207813 15.39679136 -5 18 C-5.66 18 -6.32 18 -7 18 C-7 27.9 -7 37.8 -7 48 C-4.36 46.68 -1.72 45.36 1 44 C5 43.25 5 43.25 8 43 C5.77304595 45.22695405 4.032382 45.96032175 1.125 47.125 C0.26132813 47.47820312 -0.60234375 47.83140625 -1.4921875 48.1953125 C-4 49 -4 49 -8 49 C-10.34432197 44.31135606 -9.48775917 38.05664776 -9.5625 32.875 C-9.57256073 32.19515045 -9.58262146 31.5153009 -9.59298706 30.81484985 C-9.68315622 19.31052682 -7.86112101 10.44310735 -1 1 C-0.67 0.67 -0.34 0.34 0 0 Z " fill="#D26B4A" transform="translate(220,446)"/>
<path d="M0 0 C0.33 0.66 0.66 1.32 1 2 C1.66 2 2.32 2 3 2 C3 3.98 3 5.96 3 8 C3.66 8 4.32 8 5 8 C5.05878077 11.64576392 5.0938558 15.29140352 5.125 18.9375 C5.14175781 19.95908203 5.15851563 20.98066406 5.17578125 22.03320312 C5.22966332 30.46574681 4.169912 37.76454161 0.875 45.5625 C0.52179688 46.40941406 0.16859375 47.25632812 -0.1953125 48.12890625 C-0.59363281 49.05509766 -0.59363281 49.05509766 -1 50 C-1.66 50 -2.32 50 -3 50 C-3 50.66 -3 51.32 -3 52 C-3.66 52 -4.32 52 -5 52 C-4.731875 51.21625 -4.46375 50.4325 -4.1875 49.625 C0.97970166 33.85143704 5.75405471 17.04087995 -1 1 C-0.67 0.67 -0.34 0.34 0 0 Z " fill="#E0633D" transform="translate(196,360)"/>
<path d="M0 0 C0.33 0.99 0.66 1.98 1 3 C-0.375 4.5 -0.375 4.5 -2 6 C-2.66 6 -3.32 6 -4 6 C-4 6.66 -4 7.32 -4 8 C-4.94875 8.2475 -5.8975 8.495 -6.875 8.75 C-10.44117911 9.77508516 -10.44117911 9.77508516 -12 14 C4.83 14.33 21.66 14.66 39 15 C39 15.33 39 15.66 39 16 C32.68693927 16.02560879 26.37389222 16.0429741 20.06079102 16.05493164 C17.91853332 16.059923 15.77627896 16.06671843 13.6340332 16.07543945 C-9.19603138 16.16597155 -9.19603138 16.16597155 -20 15 C-18.119074 10.67325497 -15.91725914 9.60769425 -11.6875 7.5 C-7.37434443 5.3360451 -3.67235188 3.1418245 0 0 Z " fill="#D06548" transform="translate(159,446)"/>
<path d="M0 0 C5.25144307 0.54702532 9.95232919 1.43252297 15 3.0625 C16.134375 3.42472656 17.26875 3.78695312 18.4375 4.16015625 C19.283125 4.43730469 20.12875 4.71445313 21 5 C21 5.33 21 5.66 21 6 C20.03578125 5.90460938 19.0715625 5.80921875 18.078125 5.7109375 C16.81484375 5.60007812 15.5515625 5.48921875 14.25 5.375 C12.99703125 5.25898437 11.7440625 5.14296875 10.453125 5.0234375 C7.06507285 5.00044167 5.8175221 5.33740813 3 7 C2.01 7 1.02 7 0 7 C-0.103125 7.969375 -0.20625 8.93875 -0.3125 9.9375 C-1.20397647 16.2160414 -3.55751795 22.17561972 -6 28 C-6.66 28 -7.32 28 -8 28 C-7.37869771 21.69071903 -5.50010374 16.03792431 -3.4375 10.0625 C-2.9434668 8.6074707 -2.9434668 8.6074707 -2.43945312 7.12304688 C-1.6317552 4.74677616 -0.81849052 2.37257031 0 0 Z " fill="#DA5E3C" transform="translate(229,88)"/>
<path d="M0 0 C1.28961193 2.57922387 0.79211692 3.40291211 0.00390625 6.1328125 C-0.22490234 6.93847656 -0.45371094 7.74414062 -0.68945312 8.57421875 C-0.93630859 9.41597656 -1.18316406 10.25773438 -1.4375 11.125 C-1.80198242 12.39923828 -1.80198242 12.39923828 -2.17382812 13.69921875 C-2.7761431 15.80141612 -3.38510525 17.90145431 -4 20 C-9.13424402 21.80058658 -12.99001633 19.90983867 -17.8125 18.0625 C-18.60076172 17.77181641 -19.38902344 17.48113281 -20.20117188 17.18164062 C-22.13824784 16.46550951 -24.06971265 15.73423279 -26 15 C-26 14.67 -26 14.34 -26 14 C-19.79895188 13.72439786 -14.06815522 14.77100654 -8 16 C-7.34 14.68 -6.68 13.36 -6 12 C-5.67 12 -5.34 12 -5 12 C-4.67 10.02 -4.34 8.04 -4 6 C-3.34 6 -2.68 6 -2 6 C-2 4.35 -2 2.7 -2 1 C-1.34 0.67 -0.68 0.34 0 0 Z " fill="#E4582E" transform="translate(457,182)"/>
<path d="M0 0 C1.60415504 0.01151851 3.20832356 0.02129559 4.8125 0.02929688 C26.76714589 0.19607295 26.76714589 0.19607295 34.125 3.875 C35.05570312 4.33003906 35.98640625 4.78507812 36.9453125 5.25390625 C37.62335938 5.60324219 38.30140625 5.95257813 39 6.3125 C35.84512478 7.88993761 33.54655764 6.44594063 30.25 5.4375 C21.34359896 2.72768011 13.32805816 2.08849123 4.0625 2.0625 C2.85787109 2.05855225 1.65324219 2.05460449 0.41210938 2.05053711 C-7.49995803 2.10219775 -14.72828579 2.76257443 -22.375 4.75390625 C-25 5.3125 -25 5.3125 -28 4.3125 C-18.96356428 -0.70947645 -10.00206548 -0.18308797 0 0 Z " fill="#DB7250" transform="translate(275,411.6875)"/>
<path d="M0 0 C0.33 0 0.66 0 1 0 C1 5 1 10 1 15 C1.33 15.99 1.66 16.98 2 18 C3.87387216 18.80212628 3.87387216 18.80212628 6.0625 19.1875 C7.16271484 19.42533203 7.16271484 19.42533203 8.28515625 19.66796875 C9.13400391 19.83232422 9.13400391 19.83232422 10 20 C10 20.66 10 21.32 10 22 C11.98 22.33 13.96 22.66 16 23 C11.92951444 24.65330776 8.33390262 23.28053148 4.3125 22.125 C3.62349609 21.93808594 2.93449219 21.75117188 2.22460938 21.55859375 C-2.84795918 20.15204082 -2.84795918 20.15204082 -4 19 C-3.57503505 12.30680198 -2.10830059 6.35142128 0 0 Z " fill="#E25F3A" transform="translate(126,131)"/>
<path d="M0 0 C0.66 0.66 1.32 1.32 2 2 C0.00045254 2.04254356 -2.00041636 2.04080783 -4 2 C-4.495 1.505 -4.495 1.505 -5 1 C-12.04368869 -0.96204041 -18.97975943 -1.30991957 -26.25 -1.25 C-27.68085938 -1.26160156 -27.68085938 -1.26160156 -29.140625 -1.2734375 C-34.19918778 -1.25938594 -38.24412344 -0.89250118 -43 1 C-44.65934723 1.38701239 -46.32628207 1.74331341 -48 2.0625 C-48.85335937 2.22621094 -49.70671875 2.38992188 -50.5859375 2.55859375 C-53.38586236 3.07055412 -56.18845726 3.5560722 -59 4 C-56.42178861 1.42178861 -54.17300626 0.97565192 -50.6875 -0.0625 C-49.55699219 -0.40410156 -48.42648438 -0.74570312 -47.26171875 -1.09765625 C-33.23602795 -4.97781742 -13.69535456 -5.48821194 0 0 Z " fill="#D77053" transform="translate(304,422)"/>
<path d="M0 0 C6.34035186 0.28179342 9.68093747 1.41777422 15 5 C17.33793471 5.67046917 19.65715584 6.08917324 22.0546875 6.49609375 C25.60282176 7.10313529 29.1074486 7.86108732 32.625 8.625 C33.83414063 8.88539063 35.04328125 9.14578125 36.2890625 9.4140625 C37.18367188 9.60742188 38.07828125 9.80078125 39 10 C39 10.99 39 11.98 39 13 C32.80077262 12.39938281 27.13648084 11.07109337 21.1875 9.25 C20.31254883 8.98558105 19.43759766 8.72116211 18.53613281 8.44873047 C12.08771254 6.45108303 6.00360197 4.11195882 0 1 C0 0.67 0 0.34 0 0 Z " fill="#D55A36" transform="translate(58,313)"/>
<path d="M0 0 C7.34706335 0.85544079 14.471327 3.23343543 21.5 5.4375 C23.44786426 6.04053388 25.39578052 6.64339984 27.34375 7.24609375 C28.27960938 7.53726074 29.21546875 7.82842773 30.1796875 8.12841797 C34.44488017 9.446522 38.72147795 10.72593299 43 12 C43 12.33 43 12.66 43 13 C38.33439441 13.28564932 35.30375264 12.83062914 31.109375 10.80078125 C26.61956792 9.09631745 21.73651552 8.66109002 17 8 C17 7.34 17 6.68 17 6 C16.07316406 5.95101562 15.14632813 5.90203125 14.19140625 5.8515625 C12.99386719 5.77679688 11.79632813 5.70203125 10.5625 5.625 C9.36753906 5.55539063 8.17257812 5.48578125 6.94140625 5.4140625 C5.97074219 5.27742187 5.00007813 5.14078125 4 5 C3.67 4.34 3.34 3.68 3 3 C0.98330173 1.86649466 0.98330173 1.86649466 -1 1 C-0.67 0.67 -0.34 0.34 0 0 Z " fill="#DA6241" transform="translate(413,143)"/>
<path d="M0 0 C0.66 0.33 1.32 0.66 2 1 C1.40400435 3.68954383 0.79849172 6.37635823 0.1875 9.0625 C0.02185547 9.81466797 -0.14378906 10.56683594 -0.31445312 11.34179688 C-1.42439454 16.17946606 -2.91211378 20.49519105 -5 25 C-10.46864457 23.98408579 -15.76390013 22.92908943 -21 21 C-17.23331402 19.6194913 -14.55210827 20.40431841 -10.75 21.4375 C-9.13351563 21.86869141 -9.13351563 21.86869141 -7.484375 22.30859375 C-6.66453125 22.53675781 -5.8446875 22.76492187 -5 23 C-5.16757813 22.39671875 -5.33515625 21.7934375 -5.5078125 21.171875 C-5.71148437 20.37265625 -5.91515625 19.5734375 -6.125 18.75 C-6.33382812 17.96109375 -6.54265625 17.1721875 -6.7578125 16.359375 C-7.04314411 13.5796929 -6.44977894 12.34112451 -5 10 C-4.01 10 -3.02 10 -2 10 C-1.90912109 9.04287109 -1.90912109 9.04287109 -1.81640625 8.06640625 C-1.73261719 7.24011719 -1.64882812 6.41382813 -1.5625 5.5625 C-1.48128906 4.73878906 -1.40007812 3.91507813 -1.31640625 3.06640625 C-1 1 -1 1 0 0 Z " fill="#DA603A" transform="translate(200,146)"/>
<path d="M0 0 C6.6772895 0.60702632 12.70127996 2.77631394 19 5 C20.01275945 8.83766713 19.92380513 11.29428088 18.78515625 15.08203125 C18.51123047 16.01337891 18.23730469 16.94472656 17.95507812 17.90429688 C17.66052734 18.86400391 17.36597656 19.82371094 17.0625 20.8125 C16.77181641 21.79154297 16.48113281 22.77058594 16.18164062 23.77929688 C15.46448442 26.18941198 14.73701258 28.59589735 14 31 C13.67 31 13.34 31 13 31 C13.51780089 21.93848451 14.44382852 14.38240421 18 6 C15.18733196 5.40337345 12.41721619 4.92582752 9.5625 4.5625 C6.18377313 4.02901681 3.20536496 3.1726945 0 2 C0 1.34 0 0.68 0 0 Z " fill="#CD6449" transform="translate(221,9)"/>
<path d="M0 0 C2.375 0.3125 2.375 0.3125 5 1 C5.99 2.485 5.99 2.485 7 4 C6 5 6 5 3.37413025 5.12025452 C2.20386795 5.11803391 1.03360565 5.11581329 -0.17211914 5.11352539 C-1.13794167 5.11374443 -1.13794167 5.11374443 -2.12327576 5.1139679 C-4.26060303 5.11326885 -6.39784413 5.10547691 -8.53515625 5.09765625 C-10.01346285 5.09579204 -11.49177007 5.09436815 -12.97007751 5.09336853 C-16.86798802 5.08954359 -20.76586149 5.07971352 -24.66375732 5.06866455 C-28.63846333 5.05844992 -32.61317529 5.0538708 -36.58789062 5.04882812 C-44.391944 5.03809122 -52.19596682 5.02101509 -60 5 C-60 4.67 -60 4.34 -60 4 C-39.54 4 -19.08 4 2 4 C1.34 2.68 0.68 1.36 0 0 Z " fill="#C56E52" transform="translate(413,457)"/>
<path d="M0 0 C0.66 0.33 1.32 0.66 2 1 C0.38405168 3.04119788 -1.2856382 5.04072937 -3 7 C-3.66 7 -4.32 7 -5 7 C-4.67 9.97 -4.34 12.94 -4 16 C-5.32 16.33 -6.64 16.66 -8 17 C-8.33 16.34 -8.66 15.68 -9 15 C-8.67 14.34 -8.34 13.68 -8 13 C-7.34 13 -6.68 13 -6 13 C-6 12.34 -6 11.68 -6 11 C-11.20112114 13.1772135 -13.68090651 15.60708214 -17 20 C-17 15.05395873 -13.33515944 12.41135816 -10 9 C-6.72596862 5.93029859 -3.38713455 2.94414915 0 0 Z " fill="#E56036" transform="translate(174,21)"/>
<path d="M0 0 C1.34224535 0.2954087 2.67488739 0.6353557 4 1 C6.37041609 0.90996843 6.37041609 0.90996843 8.75 0.5625 C9.54921875 0.46066406 10.3484375 0.35882813 11.171875 0.25390625 C11.77515625 0.17011719 12.3784375 0.08632813 13 0 C10.31295518 2.68704482 7.19291062 3.55325115 3.6875 4.8125 C2.24329985 5.34193065 0.79929236 5.87188709 -0.64453125 6.40234375 C-1.73435303 6.80042236 -1.73435303 6.80042236 -2.84619141 7.20654297 C-6.07701141 8.39676798 -9.28804461 9.63474 -12.5 10.875 C-13.5621875 11.28492188 -14.624375 11.69484375 -15.71875 12.1171875 C-16.84796875 12.55417969 -16.84796875 12.55417969 -18 13 C-18 11.68 -18 10.36 -18 9 C-17.39671875 8.89042969 -16.7934375 8.78085937 -16.171875 8.66796875 C-10.07494377 7.46339367 -10.07494377 7.46339367 -5 4 C-4.01 3.34 -3.02 2.68 -2 2 C-1.34 1.34 -0.68 0.68 0 0 Z " fill="#E05832" transform="translate(437,299)"/>
<path d="M0 0 C0.99 0.33 1.98 0.66 3 1 C2.63648438 1.47308594 2.27296875 1.94617188 1.8984375 2.43359375 C-1.44701386 6.834149 -4.57314027 11.32703968 -7.609375 15.9453125 C-9.27663317 18.40873327 -11.08900214 20.72150256 -13 23 C-12.25 17.25 -12.25 17.25 -10 15 C-9.87625 13.845 -9.7525 12.69 -9.625 11.5 C-9.41875 10.345 -9.2125 9.19 -9 8 C-6.9375 6.5625 -6.9375 6.5625 -5 6 C-5 5.34 -5 4.68 -5 4 C-4.360625 3.71125 -3.72125 3.4225 -3.0625 3.125 C-0.84793921 2.17176549 -0.84793921 2.17176549 0 0 Z " fill="#E95830" transform="translate(221,430)"/>
<path d="M0 0 C16.34742432 0.21823018 16.34742432 0.21823018 22.18359375 4.72265625 C25.42258827 7.00040078 29.22426895 7.92496547 33 9 C29.03173014 10.55037383 26.21391428 9.3930515 22.265625 8.12890625 C21.62759949 7.9277269 20.98957397 7.72654755 20.33221436 7.51927185 C18.30162152 6.87657426 16.27591382 6.21978046 14.25 5.5625 C12.87139224 5.12341068 11.49248873 4.68524877 10.11328125 4.24804688 C6.73869338 3.17609185 3.3683398 2.09145096 0 1 C0 0.67 0 0.34 0 0 Z " fill="#DA5E38" transform="translate(238,138)"/>
<path d="M0 0 C0.33 0 0.66 0 1 0 C0.5898967 7.4384254 -0.64282788 13.92848365 -3 21 C1.62 21.66 6.24 22.32 11 23 C11 22.34 11 21.68 11 21 C11.66 21 12.32 21 13 21 C12.67 22.32 12.34 23.64 12 25 C6.12750125 25.37484035 1.43635958 24.25153948 -4 22 C-4.33 21.67 -4.66 21.34 -5 21 C-4.57655693 13.66032007 -2.2785983 6.95237434 0 0 Z " fill="#CF6C56" transform="translate(115,80)"/>
<path d="M0 0 C7.59570439 -0.58179863 13.14115041 0.73110147 20 4 C20.33 3.34 20.66 2.68 21 2 C21.33 2.99 21.66 3.98 22 5 C24.97 5.495 24.97 5.495 28 6 C28 6.66 28 7.32 28 8 C30.97 8.495 30.97 8.495 34 9 C29.99226598 10.57946723 27.04527051 9.36569808 23.046875 8.12890625 C22.38665344 7.9277269 21.72643188 7.72654755 21.04620361 7.51927185 C18.94442997 6.87645489 16.84731162 6.21971211 14.75 5.5625 C13.32320135 5.12342279 11.89612066 4.68526098 10.46875 4.24804688 C6.97583498 3.17595558 3.48695689 2.09133524 0 1 C0 0.67 0 0.34 0 0 Z " fill="#DA5F3A" transform="translate(314,161)"/>
<path d="M0 0 C7.09171055 0.65606133 13.67203687 2.92545518 20.4375 5.0625 C22.25024414 5.62807617 22.25024414 5.62807617 24.09960938 6.20507812 C27.06793693 7.1319472 30.03463069 8.06371828 33 9 C33 9.33 33 9.66 33 10 C30.36 10 27.72 10 25 10 C25 9.34 25 8.68 25 8 C24.195625 8.020625 23.39125 8.04125 22.5625 8.0625 C20 8 20 8 19 7 C15.5141658 6.2836702 12.01737566 5.64540376 8.515625 5.01171875 C4.81216258 3.94594457 2.80319457 2.59455986 0 0 Z " fill="#D96643" transform="translate(280,103)"/>
<path d="M0 0 C0.99 0 1.98 0 3 0 C2.34 1.98 1.68 3.96 1 6 C1.66 6 2.32 6 3 6 C3 6.99 3 7.98 3 9 C-3.95023264 8.35346673 -10.38177303 6.13972752 -17 4 C-17 3.67 -17 3.34 -17 3 C-14.69 3 -12.38 3 -10 3 C-10 3.66 -10 4.32 -10 5 C-8.51800098 4.55090939 -7.03944764 4.09043436 -5.5625 3.625 C-4.32693359 3.24214844 -4.32693359 3.24214844 -3.06640625 2.8515625 C-0.82201984 2.19117773 -0.82201984 2.19117773 0 0 Z " fill="#E5592D" transform="translate(365,168)"/>
<path d="M0 0 C-3.46507212 1.20800679 -5.35150813 0.75549381 -8.75 -0.5 C-13.66156915 -2.11047 -16.96763158 -2.02511209 -22 -1 C-22 -0.34 -22 0.32 -22 1 C-23.5778125 1.61875 -23.5778125 1.61875 -25.1875 2.25 C-27.86550663 3.37303504 -29.39679157 4.33219759 -31.6875 6.25 C-32.450625 6.8275 -33.21375 7.405 -34 8 C-36.14453125 7.609375 -36.14453125 7.609375 -38 7 C-35.98285723 5.72298179 -33.9616067 4.45339806 -31.9375 3.1875 C-31.37611328 2.83107422 -30.81472656 2.47464844 -30.23632812 2.10742188 C-19.24319268 -4.73973106 -12.01446923 -4.51607709 0 0 Z " fill="#CF6547" transform="translate(221,8)"/>
<path d="M0 0 C0 1.65 0 3.3 0 5 C0.99 5 1.98 5 3 5 C3 5.66 3 6.32 3 7 C3.99 7.33 4.98 7.66 6 8 C0.60607261 7.38334864 -4.28395283 6.12077204 -9.4375 4.4375 C-10.16904297 4.20353516 -10.90058594 3.96957031 -11.65429688 3.72851562 C-13.43780179 3.15732778 -15.21913583 2.57936877 -17 2 C-14.19574621 1.19519174 -11.78641599 0.91143982 -8.875 1 C-5.33915152 1 -3.416755 0 0 0 Z " fill="#E95D34" transform="translate(288,147)"/>
<path d="M0 0 C0.66 0 1.32 0 2 0 C2.33 1.32 2.66 2.64 3 4 C2.34 4 1.68 4 1 4 C1 10.6 1 17.2 1 24 C-0.65 24 -2.3 24 -4 24 C-3.34 20.37 -2.68 16.74 -2 13 C-1.34 13 -0.68 13 0 13 C-0.66 11.02 -1.32 9.04 -2 7 C-1.34 7 -0.68 7 0 7 C0 4.69 0 2.38 0 0 Z " fill="#EF582D" transform="translate(202,471)"/>
<path d="M0 0 C0.33 0 0.66 0 1 0 C1.22162329 1.62324086 1.42689803 3.248721 1.625 4.875 C1.74101562 5.77992187 1.85703125 6.68484375 1.9765625 7.6171875 C1.98429688 8.40351562 1.99203125 9.18984375 2 10 C1.34 10.66 0.68 11.32 0 12 C0 12.99 0 13.98 0 15 C0 15.99 0 16.98 0 18 C-0.66 18.66 -1.32 19.32 -2 20 C-2.99 20 -3.98 20 -5 20 C-4.35346673 13.04976736 -2.13972752 6.61822697 0 0 Z " fill="#E5633C" transform="translate(136,98)"/>
<path d="M0 0 C8.07861415 -0.09579384 15.98340366 -0.12513633 24 1 C24 1.66 24 2.32 24 3 C26.97 3.495 26.97 3.495 30 4 C26.7273634 5.06585871 24.58369757 4.88077616 21.25 4.125 C13.88582592 2.64616993 6.48517891 2.35688431 -1 2 C-0.67 1.34 -0.34 0.68 0 0 Z " fill="#D86341" transform="translate(283,480)"/>
<path d="M0 0 C0.99 0.33 1.98 0.66 3 1 C3 1.66 3 2.32 3 3 C7.07784936 4.12550137 11.0586558 4.22471618 15.265625 4.31640625 C16.05902283 4.33718735 16.85242065 4.35796844 17.66986084 4.37937927 C20.19648844 4.44459973 22.72321721 4.50363144 25.25 4.5625 C26.96615616 4.6057114 28.68230222 4.64932653 30.3984375 4.69335938 C34.59885546 4.80025283 38.79937489 4.90159729 43 5 C43 5.33 43 5.66 43 6 C29.47 6 15.94 6 2 6 C1.34 4.02 0.68 2.04 0 0 Z " fill="#DE623D" transform="translate(349,455)"/>
<path d="M0 0 C0.66 0.33 1.32 0.66 2 1 C1.84015625 1.68191406 1.6803125 2.36382812 1.515625 3.06640625 C-0.23003191 12.9981361 0.94049765 22.43738426 3.44140625 32.07421875 C3.97832721 34.88648307 3.97261397 36.35268648 3 39 C0.19521487 36.19521487 0.03891639 34.11456528 -0.09765625 30.203125 C-0.08605469 29.22859375 -0.07445312 28.2540625 -0.0625 27.25 C-0.05347656 26.26515625 -0.04445313 25.2803125 -0.03515625 24.265625 C-0.02355469 23.51796875 -0.01195312 22.7703125 0 22 C-0.66 21.67 -1.32 21.34 -2 21 C-1.85845864 18.43719792 -1.71191438 15.87484515 -1.5625 13.3125 C-1.52318359 12.59126953 -1.48386719 11.87003906 -1.44335938 11.12695312 C-1.21814322 7.33292718 -0.87160695 3.71348508 0 0 Z " fill="#D76945" transform="translate(357,363)"/>
<path d="M0 0 C6.20131268 -0.3796722 10.30774838 0.25552154 16 3 C18.31790801 3.75837594 20.64446067 4.46900243 22.984375 5.15625 C25.21573076 6.0903059 26.41631055 7.19579683 28 9 C18.51115195 6.78952972 9.26927435 3.97604874 0 1 C0 0.67 0 0.34 0 0 Z " fill="#D95F41" transform="translate(142,155)"/>
<path d="M0 0 C8.6678988 1.36646875 16.74670244 4.11684805 25 7 C25 7.33 25 7.66 25 8 C18.80562228 8.37924762 14.69043644 7.73983977 9 5 C7.741875 4.67 6.48375 4.34 5.1875 4 C2 3 2 3 0 0 Z " fill="#D86747" transform="translate(360,127)"/>
<path d="M0 0 C7.03264333 1.27022979 13.80124472 3.01216318 20.625 5.125 C21.53378906 5.40214844 22.44257813 5.67929688 23.37890625 5.96484375 C25.58727959 6.63897877 27.79423163 7.31739977 30 8 C26.52802313 9.06254465 24.66738048 8.66498317 21.21484375 7.546875 C16.58105515 6.40272967 11.75096641 6.29644782 7 6 C6.67 5.01 6.34 4.02 6 3 C2.99152582 1.77479736 2.99152582 1.77479736 0 1 C0 0.67 0 0.34 0 0 Z " fill="#D26541" transform="translate(250,94)"/>
<path d="M0 0 C1.14176746 3.42530237 0.83108216 4.31673674 -0.21484375 7.66796875 C-0.48876953 8.56064453 -0.76269531 9.45332031 -1.04492188 10.37304688 C-1.33947266 11.30181641 -1.63402344 12.23058594 -1.9375 13.1875 C-2.22818359 14.12787109 -2.51886719 15.06824219 -2.81835938 16.03710938 C-3.53781887 18.36060971 -4.26529186 20.68128518 -5 23 C-6.1700097 19.08263419 -5.69584017 16.02040985 -5 12 C-5.66 12 -6.32 12 -7 12 C-7 10.68 -7 9.36 -7 8 C-5.68 8 -4.36 8 -3 8 C-2.814375 6.8553125 -2.814375 6.8553125 -2.625 5.6875 C-2 3 -2 3 0 0 Z " fill="#E7613A" transform="translate(233,40)"/>
<path d="M0 0 C-1.28923128 3.86769385 -2.61202242 4.74134828 -6 7 C-10 7 -14 7 -18 7 C-12.4119847 3.10622338 -7.03161257 0 0 0 Z " fill="#E65E35" transform="translate(253,424)"/>
<path d="M0 0 C8.94129144 1.44006377 17.41105391 4.20805971 26 7 C26 7.33 26 7.66 26 8 C20.7441862 8.18123496 16.94048683 7.97619473 12 6 C11.16726563 5.68546875 10.33453125 5.3709375 9.4765625 5.046875 C2.28604651 2.28604651 2.28604651 2.28604651 0 0 Z " fill="#D76643" transform="translate(386,135)"/>
<path d="M0 0 C0.33 0 0.66 0 1 0 C1.34078925 5.56622435 0.33656015 8.98072264 -2 14 C-3.05894297 16.98125836 -4.03655106 19.9866597 -5 23 C-5.33 23 -5.66 23 -6 23 C-6.66268329 15.87615459 -4.25388064 9.69120815 -2 3 C-1.34 3 -0.68 3 0 3 C0 2.01 0 1.02 0 0 Z " fill="#E2623D" transform="translate(122,60)"/>
<path d="M0 0 C0.66 0.33 1.32 0.66 2 1 C-1.56288499 5.45603327 -5.81670969 6.65001363 -11.0625 8.3125 C-11.87783203 8.58900391 -12.69316406 8.86550781 -13.53320312 9.15039062 C-19.60588403 11.13137199 -19.60588403 11.13137199 -23 10 C-10.74886437 3.42180402 -10.74886437 3.42180402 -4 3 C-2.66082739 2.69096017 -1.32346746 2.37057089 0 2 C0 1.34 0 0.68 0 0 Z " fill="#D45F3E" transform="translate(476,287)"/>
<path d="M0 0 C2 2 2 2 2.22705078 4.70556641 C2.21657715 5.82624512 2.20610352 6.94692383 2.1953125 8.1015625 C2.18886719 9.31328125 2.18242187 10.525 2.17578125 11.7734375 C2.15902344 13.04445313 2.14226562 14.31546875 2.125 15.625 C2.11597656 16.90375 2.10695313 18.1825 2.09765625 19.5 C2.07402303 22.66685167 2.04107629 25.83333424 2 29 C2.66 29 3.32 29 4 29 C4 31.31 4 33.62 4 36 C3.34 36 2.68 36 2 36 C1.67 36.66 1.34 37.32 1 38 C0.67 25.46 0.34 12.92 0 0 Z " fill="#ED532D" transform="translate(474,251)"/>
<path d="M0 0 C-2.32931391 2.44130016 -4.82999263 4.50214432 -7.5 6.5625 C-8.2734375 7.16191406 -9.046875 7.76132812 -9.84375 8.37890625 C-11.52248452 9.64099833 -13.25249114 10.83499409 -15 12 C-14.67 10.35 -14.34 8.7 -14 7 C-13.01 7 -12.02 7 -11 7 C-10.9175 6.21625 -10.835 5.4325 -10.75 4.625 C-10 2 -10 2 -8.3125 0.6875 C-5.46515091 -0.15900919 -2.95436294 -0.13428922 0 0 Z " fill="#E75A30" transform="translate(395,323)"/>
<path d="M0 0 C0.66 0 1.32 0 2 0 C0.55993623 8.94129144 -2.20805971 17.41105391 -5 26 C-5.33 26 -5.66 26 -6 26 C-6.34132397 20.42504177 -5.21887377 17.05903219 -3 12 C-2.7650798 10.61136058 -2.57763808 9.21388084 -2.4375 7.8125 C-2.06409063 4.55850407 -1.69843673 2.71749877 0 0 Z " fill="#DA5E3B" transform="translate(215,96)"/>
<path d="M0 0 C7.2484945 -0.41640288 13.16914355 0.55833216 20 3 C20 3.33 20 3.66 20 4 C18.58847656 3.85691406 18.58847656 3.85691406 17.1484375 3.7109375 C15.90320313 3.60007812 14.65796875 3.48921875 13.375 3.375 C12.14523438 3.25898437 10.91546875 3.14296875 9.6484375 3.0234375 C5.94681886 2.99965837 3.40982003 3.62558024 0 5 C0 3.35 0 1.7 0 0 Z " fill="#F55626" transform="translate(230,90)"/>
<path d="M0 0 C1 2 1 2 0.43359375 4.2421875 C-1.77385885 10.0767877 -3.40790877 12.85444868 -9 16 C-11.32277416 18.6091387 -11.32277416 18.6091387 -13 21 C-13.66 20.67 -14.32 20.34 -15 20 C-14.41992188 19.31035156 -13.83984375 18.62070312 -13.2421875 17.91015625 C-8.45180868 12.14747281 -3.99367458 6.34289492 0 0 Z " fill="#DF704E" transform="translate(190,412)"/>
<path d="M0 0 C1.296704 4.23816254 0.33843277 6.77037748 -1 11 C-1.3671565 12.39183294 -1.72369295 13.78650473 -2.0703125 15.18359375 C-2.24433594 15.88291016 -2.41835937 16.58222656 -2.59765625 17.30273438 C-2.77167969 18.00720703 -2.94570312 18.71167969 -3.125 19.4375 C-3.30675781 20.16904297 -3.48851562 20.90058594 -3.67578125 21.65429688 C-4.11827774 23.43592749 -4.55929488 25.21792542 -5 27 C-5.66 27 -6.32 27 -7 27 C-7.33 27.66 -7.66 28.32 -8 29 C-7.35856108 22.55850777 -5.45254731 16.69542617 -3.4375 10.5625 C-3.10814453 9.54478516 -2.77878906 8.52707031 -2.43945312 7.47851562 C-1.63136468 4.98398174 -0.81809872 2.49126517 0 0 Z " fill="#D76745" transform="translate(145,69)"/>
<path d="M0 0 C0.33 0.66 0.66 1.32 1 2 C2.794375 1.87625 2.794375 1.87625 4.625 1.75 C9.25517297 1.72528377 11.47033386 3.08802544 15 6 C15 6.33 15 6.66 15 7 C12.69 7 10.38 7 8 7 C8.33 6.01 8.66 5.02 9 4 C7.9275 4.391875 6.855 4.78375 5.75 5.1875 C2 6 2 6 -0.4375 4.75 C-2 3 -2 3 -2 1 C-1.34 0.67 -0.68 0.34 0 0 Z " fill="#F45826" transform="translate(306,425)"/>
<path d="M0 0 C6.38499043 1.52495888 10.62547043 2.83010142 15 8 C15.99 8.66 16.98 9.32 18 10 C18 10.66 18 11.32 18 12 C13.3811151 10.68618385 10.03300555 8.86177157 6.1875 6 C5.23230469 5.29875 4.27710938 4.5975 3.29296875 3.875 C1 2 1 2 0 0 Z " fill="#D55C3A" transform="translate(40,301)"/>
<path d="M0 0 C0.66 0 1.32 0 2 0 C1.38334864 5.39392739 0.12077204 10.28395283 -1.5625 15.4375 C-1.79646484 16.16904297 -2.03042969 16.90058594 -2.27148438 17.65429688 C-2.84267222 19.43780179 -3.42063123 21.21913583 -4 23 C-6.44443624 15.52700922 -2.88091402 6.94038377 0 0 Z " fill="#DD613E" transform="translate(225,63)"/>
<path d="M0 0 C0.99 0.495 0.99 0.495 2 1 C2.02917228 4.22914752 2.04685663 7.45826083 2.0625 10.6875 C2.07087891 11.59951172 2.07925781 12.51152344 2.08789062 13.45117188 C2.09111328 14.33740234 2.09433594 15.22363281 2.09765625 16.13671875 C2.10289307 16.94842529 2.10812988 17.76013184 2.11352539 18.59643555 C1.9929791 21.14864673 1.559949 23.51026137 1 26 C2.98 26.33 4.96 26.66 7 27 C4 29 4 29 0 30 C0 20.1 0 10.2 0 0 Z " fill="#ED5924" transform="translate(213,464)"/>
<path d="M0 0 C1.28961193 2.57922387 0.79211692 3.40291211 0.00390625 6.1328125 C-0.22490234 6.93847656 -0.45371094 7.74414062 -0.68945312 8.57421875 C-0.93630859 9.41597656 -1.18316406 10.25773438 -1.4375 11.125 C-1.80198242 12.39923828 -1.80198242 12.39923828 -2.17382812 13.69921875 C-2.7761431 15.80141612 -3.38510525 17.90145431 -4 20 C-6.375 20.625 -6.375 20.625 -9 21 C-9.66 20.34 -10.32 19.68 -11 19 C-9.02 19 -7.04 19 -5 19 C-4.67 14.71 -4.34 10.42 -4 6 C-3.34 6 -2.68 6 -2 6 C-2 4.35 -2 2.7 -2 1 C-1.34 0.67 -0.68 0.34 0 0 Z " fill="#D46343" transform="translate(457,182)"/>
<path d="M0 0 C6.667715 -0.32263137 12.89221233 0.04533015 19 3 C20.7890625 5.109375 20.7890625 5.109375 22 7 C17.00549741 6.3146345 12.4032406 4.97984349 7.625 3.4375 C6.88894531 3.20353516 6.15289062 2.96957031 5.39453125 2.72851562 C3.59518762 2.1559972 1.79742723 1.57850686 0 1 C0 0.67 0 0.34 0 0 Z " fill="#D85F3E" transform="translate(313,485)"/>
<path d="M0 0 C1.60488281 0.00483398 1.60488281 0.00483398 3.2421875 0.00976562 C4.35335938 0.01814453 5.46453125 0.02652344 6.609375 0.03515625 C8.29933594 0.04192383 8.29933594 0.04192383 10.0234375 0.04882812 C12.80213717 0.06060228 15.58072909 0.07704785 18.359375 0.09765625 C18.359375 0.42765625 18.359375 0.75765625 18.359375 1.09765625 C17.70453125 1.15300537 17.0496875 1.20835449 16.375 1.26538086 C13.36965034 1.52033681 10.36451398 1.7777294 7.359375 2.03515625 C6.32941406 2.12216797 5.29945313 2.20917969 4.23828125 2.29882812 C-1.40765174 2.78430644 -7.02349061 3.34825491 -12.640625 4.09765625 C-11.650625 3.76765625 -10.660625 3.43765625 -9.640625 3.09765625 C-9.640625 2.43765625 -9.640625 1.77765625 -9.640625 1.09765625 C-6.36436125 0.11545685 -3.41274381 -0.01815289 0 0 Z " fill="#D76A49" transform="translate(256.640625,480.90234375)"/>
<path d="M0 0 C6.26802091 1.95875653 11.50005617 6.31838142 16 11 C13.6568787 10.74438677 11.32156597 10.40729228 9 10 C8.67 9.34 8.34 8.68 8 8 C6.845 7.38125 5.69 6.7625 4.5 6.125 C1.11913288 4.28591891 1.11913288 4.28591891 0.0625 1.75 C0.041875 1.1725 0.02125 0.595 0 0 Z " fill="#D36245" transform="translate(395,445)"/>
<path d="M0 0 C4.44707035 3.93883373 7.80879837 8.42808727 10 14 C9.67 14.99 9.34 15.98 9 17 C8.01941648 15.54261898 7.04057868 14.08406325 6.0625 12.625 C5.24458984 11.40683594 5.24458984 11.40683594 4.41015625 10.1640625 C3 8 3 8 2 6 C1.34 6 0.68 6 0 6 C0 4.02 0 2.04 0 0 Z " fill="#DF623C" transform="translate(332,442)"/>
<path d="M0 0 C1.4540625 0.0309375 1.4540625 0.0309375 2.9375 0.0625 C-0.46748285 2.33248857 -4.04399446 3.98502127 -7.75 5.6875 C-8.45189453 6.01234375 -9.15378906 6.3371875 -9.87695312 6.671875 C-11.60443738 7.47098336 -13.33333254 8.26704043 -15.0625 9.0625 C-15.0625 8.4025 -15.0625 7.7425 -15.0625 7.0625 C-14.44375 7.000625 -13.825 6.93875 -13.1875 6.875 C-10.78488859 6.233581 -10.78488859 6.233581 -9.8125 3.5 C-9.565 2.695625 -9.3175 1.89125 -9.0625 1.0625 C-7.8559375 1.0934375 -7.8559375 1.0934375 -6.625 1.125 C-3.4084517 1.0465476 -3.39792468 0.0693454 0 0 Z " fill="#DC5E37" transform="translate(415.0625,311.9375)"/>
<path d="M0 0 C1.65 0 3.3 0 5 0 C4.01 0.33 3.02 0.66 2 1 C2 1.99 2 2.98 2 4 C2.99 4 3.98 4 5 4 C4.67 6.97 4.34 9.94 4 13 C1.4201268 11.4187874 0.18251811 10.53351447 -0.8125 7.625 C-1.00948467 4.86721466 -0.68620088 2.66855898 0 0 Z " fill="#EE6128" transform="translate(21,267)"/>
<path d="M0 0 C0.33 0 0.66 0 1 0 C1.21544006 5.23115393 0.52370193 9.43785303 -1 14.4375 C-1.37125 15.67371094 -1.7425 16.90992188 -2.125 18.18359375 C-2.41375 19.11300781 -2.7025 20.04242188 -3 21 C-3.33 21 -3.66 21 -4 21 C-2.96969697 2.96969697 -2.96969697 2.96969697 0 0 Z " fill="#DC5D3B" transform="translate(238,19)"/>
<path d="M0 0 C7.85339858 0.37397136 14.31200535 2.31200535 20 8 C12.73763698 6.69039355 6.6169252 4.24043814 0 1 C0 0.67 0 0.34 0 0 Z " fill="#D15F3F" transform="translate(58,313)"/>
<path d="M0 0 C0.33 0 0.66 0 1 0 C1.33 3.3 1.66 6.6 2 10 C1.01 10.495 1.01 10.495 0 11 C0 12.65 0 14.3 0 16 C-1.32 15.34 -2.64 14.68 -4 14 C-3.52188823 12.22888156 -3.0424722 10.45811517 -2.5625 8.6875 C-2.29566406 7.70136719 -2.02882812 6.71523437 -1.75390625 5.69921875 C-1.21920575 3.78482474 -0.62855462 1.88566385 0 0 Z " fill="#E16238" transform="translate(220,117)"/>
<path d="M0 0 C1 2 1 2 0.0625 5.125 C-0.288125 6.07375 -0.63875 7.0225 -1 8 C-1.66 8 -2.32 8 -3 8 C-3.12117187 8.54527344 -3.24234375 9.09054688 -3.3671875 9.65234375 C-4.578125 15.1015625 -5.7890625 20.55078125 -7 26 C-7.66 26 -8.32 26 -9 26 C-7.63378991 16.96670043 -5.10626901 7.65940351 0 0 Z " fill="#D86B4C" transform="translate(155,41)"/>
<path d="M0 0 C1 2 1 2 0.29296875 4.42578125 C-0.07183594 5.37839844 -0.43664062 6.33101563 -0.8125 7.3125 C-1.16957031 8.25738281 -1.52664062 9.20226562 -1.89453125 10.17578125 C-2.9173889 12.78894762 -3.95207813 15.39679136 -5 18 C-5.66 18 -6.32 18 -7 18 C-6.02987071 10.93398364 -4.22263963 5.76986636 0 0 Z " fill="#E1623A" transform="translate(220,446)"/>
<path d="M0 0 C1.32 0.33 2.64 0.66 4 1 C3.39671875 1.73605469 2.7934375 2.47210938 2.171875 3.23046875 C1.37265625 4.20628906 0.5734375 5.18210937 -0.25 6.1875 C-1.03890625 7.15042969 -1.8278125 8.11335938 -2.640625 9.10546875 C-4.77584772 11.72500523 -6.89356361 14.35729197 -9 17 C-9 15.68 -9 14.36 -9 13 C-8.34 13 -7.68 13 -7 13 C-6.87625 12.21625 -6.7525 11.4325 -6.625 10.625 C-5.84855039 7.36391165 -4.33398041 6.33398041 -2 4 C-1.34 3.67 -0.68 3.34 0 3 C0 2.01 0 1.02 0 0 Z " fill="#E06B3A" transform="translate(371,339)"/>
<path d="M0 0 C0.969375 0.144375 1.93875 0.28875 2.9375 0.4375 C6.67346936 0.98758138 10.4160505 1.3212786 14.1796875 1.62109375 C15.08074219 1.80865234 15.08074219 1.80865234 16 2 C16.33 2.66 16.66 3.32 17 4 C18.97888961 4.72693904 20.97954558 5.39816251 23 6 C19.68177296 7.11378736 17.75179221 6.87728255 14.453125 5.78515625 C13.60878906 5.51123047 12.76445312 5.23730469 11.89453125 4.95507812 C11.02183594 4.66052734 10.14914062 4.36597656 9.25 4.0625 C8.36183594 3.77181641 7.47367187 3.48113281 6.55859375 3.18164062 C4.36917921 2.46360682 2.18337811 1.73614477 0 1 C0 0.67 0 0.34 0 0 Z " fill="#DA6742" transform="translate(387,183)"/>
<path d="M0 0 C0 3 0 3 -1.4375 5.375 C-3.15404286 7.87573494 -3.15404286 7.87573494 -3.375 10.625 C-4 13 -4 13 -6.5625 14.8125 C-7.366875 15.204375 -8.17125 15.59625 -9 16 C-7.85142845 8.85333259 -5.06245367 5.08952561 0 0 Z " fill="#EF5526" transform="translate(163,33)"/>
<path d="M0 0 C-3.41730019 2.27820013 -6.54917117 2.92367309 -10.5 3.6875 C-11.17675781 3.82994141 -11.85351562 3.97238281 -12.55078125 4.11914062 C-15.84968984 4.77306629 -17.75529651 5.08156783 -21 4 C-13.81947541 0.51098155 -7.9587799 -0.54470737 0 0 Z " fill="#D76648" transform="translate(268,412)"/>
<path d="M0 0 C3 0.1875 3 0.1875 5 1.1875 C8.6020895 1.4656025 12.20396821 1.63482224 15.8125 1.80859375 C19 2.1875 19 2.1875 21 4.1875 C17.60387586 4.0479947 14.20818542 3.89977678 10.8125 3.75 C9.85279297 3.71068359 8.89308594 3.67136719 7.90429688 3.63085938 C6.97294922 3.58896484 6.04160156 3.54707031 5.08203125 3.50390625 C4.22843018 3.46724854 3.3748291 3.43059082 2.49536133 3.39282227 C-0.06454594 3.18218906 -2.49333243 2.73908464 -5 2.1875 C-3 0.1875 -3 0.1875 0 0 Z " fill="#DA5B2D" transform="translate(103,324.8125)"/>
<path d="M0 0 C0.66 0 1.32 0 2 0 C2 0.66 2 1.32 2 2 C3.65 1.34 5.3 0.68 7 0 C8.08209949 3.24629847 7.78140875 3.87436498 7 7 C7.33 7.99 7.66 8.98 8 10 C5.12470182 8.71107323 2.94991702 7.50703617 1 5 C0.3125 2.3125 0.3125 2.3125 0 0 Z " fill="#E65B34" transform="translate(32,291)"/>
<path d="M0 0 C1.56393356 3.97376829 0.36145292 6.81377903 -0.9375 10.75 C-1.31777344 11.92046875 -1.69804687 13.0909375 -2.08984375 14.296875 C-2.39019531 15.18890625 -2.69054687 16.0809375 -3 17 C-4.21252783 13.36241652 -3.76904873 11.14879102 -3.1875 7.375 C-3.01605469 6.20710937 -2.84460938 5.03921875 -2.66796875 3.8359375 C-2.44753906 2.90007812 -2.22710937 1.96421875 -2 1 C-1.34 0.67 -0.68 0.34 0 0 Z " fill="#DB623E" transform="translate(206,129)"/>
<path d="M0 0 C1.99954746 -0.04254356 4.00041636 -0.04080783 6 0 C6.33 0.33 6.66 0.66 7 1 C8.51469448 1.23192865 10.03754562 1.41215238 11.5625 1.5625 C12.38878906 1.64628906 13.21507812 1.73007813 14.06640625 1.81640625 C14.70449219 1.87699219 15.34257812 1.93757812 16 2 C16.33 2.99 16.66 3.98 17 5 C17.99 5.33 18.98 5.66 20 6 C13.04976736 5.35346673 6.61822697 3.13972752 0 1 C0 0.67 0 0.34 0 0 Z " fill="#D86141" transform="translate(294,155)"/>
<path d="M0 0 C2.14453125 0.26953125 2.14453125 0.26953125 4.8125 0.8125 C5.68519531 0.98394531 6.55789063 1.15539062 7.45703125 1.33203125 C9.866859 1.96502748 11.82627526 2.79913109 14 4 C14 4.66 14 5.32 14 6 C12.35333797 5.8864371 10.70763918 5.75882619 9.0625 5.625 C7.68771484 5.52058594 7.68771484 5.52058594 6.28515625 5.4140625 C5.15400391 5.20910156 5.15400391 5.20910156 4 5 C3.67 4.34 3.34 3.68 3 3 C0.98330173 1.86649466 0.98330173 1.86649466 -1 1 C-0.67 0.67 -0.34 0.34 0 0 Z " fill="#D75E35" transform="translate(413,143)"/>
<path d="M0 0 C3.21524305 1.40844718 5.32183868 3.10344786 7.75 5.625 C8.67039062 6.57246094 8.67039062 6.57246094 9.609375 7.5390625 C10.29773438 8.26222656 10.29773438 8.26222656 11 9 C9.68 9.33 8.36 9.66 7 10 C6.34 9.01 5.68 8.02 5 7 C3.68 7 2.36 7 1 7 C1.020625 6.21625 1.04125 5.4325 1.0625 4.625 C1.18684063 2.01885039 1.18684063 2.01885039 0 0 Z " fill="#E15F37" transform="translate(321,432)"/>
<path d="M0 0 C2.57876935 0.34848234 4.50123403 0.63551717 6.625 2.1875 C9.54395986 6.03521982 11.28560084 10.51618682 13 15 C2.32352941 4.64705882 2.32352941 4.64705882 0 0 Z " fill="#D66447" transform="translate(182,345)"/>
<path d="M0 0 C2.64 0 5.28 0 8 0 C8.33 0.66 8.66 1.32 9 2 C11.52733235 2.65555119 11.52733235 2.65555119 14 3 C14.33 3.99 14.66 4.98 15 6 C9.22621075 5.5188509 5.04140164 3.81532819 0 1 C0 0.67 0 0.34 0 0 Z " fill="#E85C2E" transform="translate(164,160)"/>
<path d="M0 0 C0.66 0 1.32 0 2 0 C2.66 1.65 3.32 3.3 4 5 C-3.59 5 -11.18 5 -19 5 C-19 4.67 -19 4.34 -19 4 C-12.73 3.67 -6.46 3.34 0 3 C0 2.01 0 1.02 0 0 Z " fill="#D75931" transform="translate(411,456)"/>
<path d="M0 0 C0.33 0.66 0.66 1.32 1 2 C0.34 2 -0.32 2 -1 2 C-1.04125 2.5775 -1.0825 3.155 -1.125 3.75 C-2.86497725 8.22422723 -7.8833072 9.98183824 -12 12 C-8.32167983 7.47384007 -4.58913637 3.60575001 0 0 Z " fill="#DC7452" transform="translate(174,433)"/>
<path d="M0 0 C2.875 0.875 2.875 0.875 6 3 C7.14100188 6.28038042 7.62510465 9.55484102 8 13 C5.68757908 10.83676753 3.9843604 8.62352196 2.3125 5.9375 C1.87550781 5.24527344 1.43851562 4.55304688 0.98828125 3.83984375 C0 2 0 2 0 0 Z " fill="#E16240" transform="translate(341,441)"/>
<path d="M0 0 C6.45054982 1.35253464 12.71105679 3.03060233 19 5 C19 5.33 19 5.66 19 6 C16.36 6 13.72 6 11 6 C11 5.34 11 4.68 11 4 C10.29875 4.061875 9.5975 4.12375 8.875 4.1875 C5.34739788 3.95743899 3.06015649 2.70799432 0 1 C0 0.67 0 0.34 0 0 Z " fill="#CE684B" transform="translate(294,107)"/>
<path d="M0 0 C-4.455 3.465 -4.455 3.465 -9 7 C-9.66 6.67 -10.32 6.34 -11 6 C-10.375 3.625 -10.375 3.625 -9 1 C-5.37169613 -0.69835501 -3.84489875 -1.28163292 0 0 Z " fill="#E15E39" transform="translate(236,423)"/>
<path d="M0 0 C5.39795989 1.15058556 10.70987333 2.42421759 16 4 C16 4.33 16 4.66 16 5 C13.36 5 10.72 5 8 5 C8 4.34 8 3.68 8 3 C5.36 3 2.72 3 0 3 C0 2.01 0 1.02 0 0 Z " fill="#D56B47" transform="translate(324,116)"/>
<path d="M0 0 C5.75762166 1.08896667 11.39247819 2.29336293 17 4 C17 4.66 17 5.32 17 6 C14.03 5.67 11.06 5.34 8 5 C8 4.34 8 3.68 8 3 C6.865625 2.87625 5.73125 2.7525 4.5625 2.625 C3.386875 2.41875 2.21125 2.2125 1 2 C0.67 1.34 0.34 0.68 0 0 Z " fill="#E6572A" transform="translate(204,5)"/>
<path d="M0 0 C6.33393082 -0.34548714 11.10261508 0.70657253 17 3 C17 3.33 17 3.66 17 4 C15.00045254 4.04254356 12.99958364 4.04080783 11 4 C10.67 3.67 10.34 3.34 10 3 C8.32115762 2.6068352 6.63149955 2.25914548 4.9375 1.9375 C4.01839844 1.76089844 3.09929687 1.58429688 2.15234375 1.40234375 C1.44207031 1.26957031 0.73179687 1.13679688 0 1 C0 0.67 0 0.34 0 0 Z " fill="#DF6D4D" transform="translate(289,420)"/>
<path d="M0 0 C0.33 0 0.66 0 1 0 C0.22095672 11.52164009 0.22095672 11.52164009 -2 17 C-2.33 17 -2.66 17 -3 17 C-3.40214229 10.83381819 -1.96818336 5.82254243 0 0 Z " fill="#DC6646" transform="translate(115,80)"/>
<path d="M0 0 C2.375 0.3125 2.375 0.3125 5 1 C5.66 1.99 6.32 2.98 7 4 C6 5 6 5 3.71484375 5.09765625 C2.34005859 5.08025391 2.34005859 5.08025391 0.9375 5.0625 C0.01839844 5.05347656 -0.90070313 5.04445313 -1.84765625 5.03515625 C-2.55792969 5.02355469 -3.26820313 5.01195312 -4 5 C-4 4.67 -4 4.34 -4 4 C-2.02 4 -0.04 4 2 4 C1.34 2.68 0.68 1.36 0 0 Z " fill="#B46B59" transform="translate(413,457)"/>
<path d="M0 0 C0.66 0 1.32 0 2 0 C1.34 2.97 0.68 5.94 0 9 C-0.66 9 -1.32 9 -2 9 C-2 9.66 -2 10.32 -2 11 C-2.66 11 -3.32 11 -4 11 C-2.7874262 7.27566618 -1.49140021 3.62197194 0 0 Z " fill="#DE613F" transform="translate(195,401)"/>
<path d="M0 0 C-4.29 1.65 -8.58 3.3 -13 5 C-13 3.68 -13 2.36 -13 1 C-11.58622218 0.63447197 -10.16879424 0.28304505 -8.75 -0.0625 C-7.96109375 -0.25972656 -7.1721875 -0.45695312 -6.359375 -0.66015625 C-4 -1 -4 -1 0 0 Z " fill="#D75E39" transform="translate(432,307)"/>
<path d="M0 0 C5.9129304 0.64270983 11.34244531 2.19003784 17 4 C17 4.33 17 4.66 17 5 C10.54487966 5.56131481 5.84560277 3.63463787 0 1 C0 0.67 0 0.34 0 0 Z " fill="#D26E51" transform="translate(439,151)"/>
<path d="M0 0 C0 2.97 0 5.94 0 9 C-1.98 7.35 -3.96 5.7 -6 4 C-2.25 0 -2.25 0 0 0 Z " fill="#EB5F34" transform="translate(335,425)"/>
<path d="M0 0 C5.21979128 -0.1799928 9.07262981 0.02905192 14 2 C14 2.33 14 2.66 14 3 C4.58997722 3.3690205 4.58997722 3.3690205 0 1 C0 0.67 0 0.34 0 0 Z " fill="#D9603B" transform="translate(371,132)"/>
<path d="M0 0 C6.76923077 3.44615385 6.76923077 3.44615385 7.9375 6.25 C7.958125 6.8275 7.97875 7.405 8 8 C5.525 7.01 5.525 7.01 3 6 C3 5.34 3 4.68 3 4 C2.01 3.67 1.02 3.34 0 3 C0 2.01 0 1.02 0 0 Z " fill="#EC592A" transform="translate(388,441)"/>
<path d="M0 0 C3.63094642 2.64960955 5.89851796 5.01824456 8 9 C6.68 9 5.36 9 4 9 C0 4 0 4 0 0 Z " fill="#D46D4E" transform="translate(376,427)"/>
<path d="M0 0 C0.66 0.33 1.32 0.66 2 1 C0.25740319 10.59453303 0.25740319 10.59453303 -3 14 C-2.855625 13.154375 -2.71125 12.30875 -2.5625 11.4375 C-2.16806729 9.02707791 -1.81760562 6.60924286 -1.5 4.1875 C-1 1 -1 1 0 0 Z " fill="#DD5736" transform="translate(200,146)"/>
<path d="M0 0 C0.33 0 0.66 0 1 0 C1 2.97 1 5.94 1 9 C0.01 9.33 -0.98 9.66 -2 10 C-2.33 10.66 -2.66 11.32 -3 12 C-2.69106068 10.3743193 -2.3777305 8.74947252 -2.0625 7.125 C-1.88847656 6.22007813 -1.71445313 5.31515625 -1.53515625 4.3828125 C-1 2 -1 2 0 0 Z " fill="#D96D47" transform="translate(130,118)"/>
<path d="M0 0 C1.21065165 3.63195496 0.62784815 5.06531629 -0.4375 8.6875 C-0.86869141 10.17830078 -0.86869141 10.17830078 -1.30859375 11.69921875 C-1.53675781 12.45847656 -1.76492187 13.21773437 -2 14 C-2.33 14 -2.66 14 -3 14 C-3.08153933 12.41753293 -3.13943557 10.83383727 -3.1875 9.25 C-3.22230469 8.36828125 -3.25710937 7.4865625 -3.29296875 6.578125 C-2.94923684 3.55328417 -1.99772541 2.24416398 0 0 Z " fill="#D96445" transform="translate(233,40)"/>
<path d="M0 0 C3.3 0 6.6 0 10 0 C6.61885051 1.69057475 4.3700175 2.45815467 0.75 3.125 C-0.58804688 3.37636719 -0.58804688 3.37636719 -1.953125 3.6328125 C-2.62859375 3.75398438 -3.3040625 3.87515625 -4 4 C-3.67 3.34 -3.34 2.68 -3 2 C-2.01 2 -1.02 2 0 2 C0 1.34 0 0.68 0 0 Z " fill="#D5664B" transform="translate(234,485)"/>
<path d="M0 0 C2.11386464 2.11386464 2.97008322 3.79267603 4.1875 6.5 C4.55230469 7.2940625 4.91710937 8.088125 5.29296875 8.90625 C5.52628906 9.5971875 5.75960938 10.288125 6 11 C5.67 11.66 5.34 12.32 5 13 C1.89531014 10.45979921 1.01514064 7.82629933 0 4 C0 2.68 0 1.36 0 0 Z " fill="#D46A4E" transform="translate(361,402)"/>
<path d="M0 0 C1.258125 -0.020625 2.51625 -0.04125 3.8125 -0.0625 C4.52019531 -0.07410156 5.22789062 -0.08570313 5.95703125 -0.09765625 C8 0 8 0 11 1 C11 1.66 11 2.32 11 3 C11.99 3.33 12.98 3.66 14 4 C9.13103697 3.40380045 4.67209049 2.43023178 0 1 C0 0.67 0 0.34 0 0 Z " fill="#DC6243" transform="translate(280,151)"/>
<path d="M0 0 C0.66 0 1.32 0 2 0 C1.40380045 4.86896303 0.43023178 9.32790951 -1 14 C-2.13732426 10.59598052 -1.83989957 8.22543336 -1.0625 4.75 C-0.86785156 3.85796875 -0.67320312 2.9659375 -0.47265625 2.046875 C-0.31667969 1.37140625 -0.16070312 0.6959375 0 0 Z " fill="#D4674C" transform="translate(225,63)"/>
<path d="M0 0 C1.4391134 0.28359887 2.87625518 0.57721399 4.3125 0.875 C5.11300781 1.03742187 5.91351563 1.19984375 6.73828125 1.3671875 C9 2 9 2 12 4 C8.67778618 5.10740461 6.35896892 4.97233311 3 4 C1 2 1 2 0 0 Z " fill="#E85527" transform="translate(123,58)"/>
<path d="M0 0 C3 1 3 1 4 3 C6.52733235 3.65555119 6.52733235 3.65555119 9 4 C9 4.66 9 5.32 9 6 C5.87709365 5.51421457 3.00419641 5.0013988 0 4 C0 2.68 0 1.36 0 0 Z " fill="#EB5525" transform="translate(112,97)"/>
<path d="M0 0 C1.41805831 0.28482368 2.83440379 0.57818144 4.25 0.875 C5.03890625 1.03742188 5.8278125 1.19984375 6.640625 1.3671875 C9 2 9 2 13 4 C9.04 3.67 5.08 3.34 1 3 C0.67 2.01 0.34 1.02 0 0 Z " fill="#D4613F" transform="translate(237,90)"/>
<path d="M0 0 C0.66 0.33 1.32 0.66 2 1 C0.35 2.98 -1.3 4.96 -3 7 C-4.32 6.67 -5.64 6.34 -7 6 C-4.69 4.02 -2.38 2.04 0 0 Z " fill="#DB623F" transform="translate(174,21)"/>
<path d="M0 0 C0 0.66 0 1.32 0 2 C-1.258125 2.04125 -2.51625 2.0825 -3.8125 2.125 C-4.52019531 2.14820313 -5.22789062 2.17140625 -5.95703125 2.1953125 C-8 2 -8 2 -11 0 C-6.98195309 -0.84098656 -3.98196457 -1.05404945 0 0 Z " fill="#EA5527" transform="translate(321,483)"/>
<path d="M0 0 C0.33 0.66 0.66 1.32 1 2 C-0.21484375 4.3828125 -0.21484375 4.3828125 -1.9375 7.125 C-2.50339844 8.03507812 -3.06929687 8.94515625 -3.65234375 9.8828125 C-4.09707031 10.58148438 -4.54179687 11.28015625 -5 12 C-5.33 11.01 -5.66 10.02 -6 9 C-4.33168894 5.74679343 -2.24107496 2.88138209 0 0 Z " fill="#D15E40" transform="translate(214,441)"/>
<path d="M0 0 C0 1.32 0 2.64 0 4 C0.66 4.66 1.32 5.32 2 6 C1.34 6.66 0.68 7.32 0 8 C-1.65 6.02 -3.3 4.04 -5 2 C-2 0 -2 0 0 0 Z " fill="#E46A39" transform="translate(340,433)"/>
<path d="M0 0 C3.58697577 -0.19927643 6.00095064 -0.0683099 9 2 C10.25 4.125 10.25 4.125 11 6 C7.2089881 4.55049545 3.6125362 2.84827434 0 1 C0 0.67 0 0.34 0 0 Z " fill="#E3623E" transform="translate(314,419)"/>
<path d="M0 0 C0.66 0 1.32 0 2 0 C1.67 1.32 1.34 2.64 1 4 C-2.375 4.125 -2.375 4.125 -6 4 C-6.66 3.34 -7.32 2.68 -8 2 C-5.36 2 -2.72 2 0 2 C0 1.34 0 0.68 0 0 Z " fill="#D16043" transform="translate(126,101)"/>
<path d="M0 0 C4.05606165 0.46800711 7.46588679 0.87953208 11 3 C11 3.33 11 3.66 11 4 C6.91281305 4.24042276 3.82320557 3.42258812 0 2 C0 1.34 0 0.68 0 0 Z " fill="#D3613C" transform="translate(221,9)"/>
<path d="M0 0 C0.99 0.33 1.98 0.66 3 1 C2.67 1.66 2.34 2.32 2 3 C2.66 3.66 3.32 4.32 4 5 C1.36 4.67 -1.28 4.34 -4 4 C-2.68 2.68 -1.36 1.36 0 0 Z " fill="#F35928" transform="translate(195,9)"/>
<path d="M0 0 C0.66 0 1.32 0 2 0 C2 2.31 2 4.62 2 7 C-0.64 6.67 -3.28 6.34 -6 6 C-6 5.67 -6 5.34 -6 5 C-4.02 4.67 -2.04 4.34 0 4 C-0.33 3.01 -0.66 2.02 -1 1 C-0.67 0.67 -0.34 0.34 0 0 Z " fill="#F05928" transform="translate(341,486)"/>
<path d="M0 0 C3.37503669 1.1858237 5.64722731 2.27573689 8 5 C5.69 5 3.38 5 1 5 C0.67 3.35 0.34 1.7 0 0 Z " fill="#E36643" transform="translate(313,427)"/>
<path d="M0 0 C0.66 0 1.32 0 2 0 C1.71905418 1.8141927 1.42493567 3.62635001 1.125 5.4375 C0.88136719 6.95150391 0.88136719 6.95150391 0.6328125 8.49609375 C0.42398437 9.32238281 0.21515625 10.14867187 0 11 C-0.99 11.495 -0.99 11.495 -2 12 C-1.85904936 10.3745692 -1.71207913 8.74965949 -1.5625 7.125 C-1.48128906 6.22007812 -1.40007812 5.31515625 -1.31640625 4.3828125 C-1 2 -1 2 0 0 Z " fill="#EA5729" transform="translate(458,171)"/>
<path d="M0 0 C1.18771723 3.42943519 0.80226223 5.37784675 -0.4375 8.75 C-0.86869141 9.94882813 -0.86869141 9.94882813 -1.30859375 11.171875 C-1.65083984 12.07679687 -1.65083984 12.07679687 -2 13 C-2.33 13 -2.66 13 -3 13 C-3.31563182 7.73946963 -2.66590937 4.55426184 0 0 Z " fill="#D76445" transform="translate(132,83)"/>
<path d="M0 0 C0.66 0.33 1.32 0.66 2 1 C1.67 4.63 1.34 8.26 1 12 C0.67 12 0.34 12 0 12 C-0.19477739 10.37585622 -0.38059458 8.75063577 -0.5625 7.125 C-0.66691406 6.22007813 -0.77132812 5.31515625 -0.87890625 4.3828125 C-1 2 -1 2 0 0 Z " fill="#EC592B" transform="translate(219,77)"/>
<path d="M0 0 C0.33 0.66 0.66 1.32 1 2 C1.66 2 2.32 2 3 2 C3 4.64 3 7.28 3 10 C1.00902154 7.01353231 0.05875074 4.40312738 -1 1 C-0.67 0.67 -0.34 0.34 0 0 Z " fill="#D95D3C" transform="translate(196,360)"/>
<path d="M0 0 C0.66 0 1.32 0 2 0 C1.42647107 3.87132028 -0.48704352 6.08172796 -3 9 C-3 7.68 -3 6.36 -3 5 C-2.34 5 -1.68 5 -1 5 C-0.67 3.35 -0.34 1.7 0 0 Z " fill="#DB613D" transform="translate(365,347)"/>
<path d="M0 0 C0.33 1.32 0.66 2.64 1 4 C1.78375 4.12375 2.5675 4.2475 3.375 4.375 C6 5 6 5 8 7 C1.125 6.125 1.125 6.125 0 5 C-0.04063832 3.33382885 -0.042721 1.66611905 0 0 Z " fill="#D2705D" transform="translate(122,145)"/>
<path d="M0 0 C0.33 0 0.66 0 1 0 C0.25 6.75 0.25 6.75 -2 9 C-2.125 5.625 -2.125 5.625 -2 2 C-1.34 1.34 -0.68 0.68 0 0 Z " fill="#E45632" transform="translate(118,74)"/>
<path d="M0 0 C0 0.99 0 1.98 0 3 C-3 5 -3 5 -5.1875 4.625 C-5.785625 4.41875 -6.38375 4.2125 -7 4 C-2.25 0 -2.25 0 0 0 Z " fill="#DE6141" transform="translate(183,16)"/>
<path d="M0 0 C3.68754757 0.49831724 5.60490662 1.10067643 8 4 C5.69 3.67 3.38 3.34 1 3 C0.67 2.01 0.34 1.02 0 0 Z " fill="#CE5E3A" transform="translate(403,452)"/>
<path d="M0 0 C0.66 0.33 1.32 0.66 2 1 C1.375 2.875 1.375 2.875 0 5 C-3.125 6.25 -3.125 6.25 -6 7 C-4.02 4.69 -2.04 2.38 0 0 Z " fill="#D76344" transform="translate(233,432)"/>
<path d="M0 0 C1.65 0 3.3 0 5 0 C4.67 1.32 4.34 2.64 4 4 C2.68 3.67 1.36 3.34 0 3 C0 2.01 0 1.02 0 0 Z " fill="#F5592A" transform="translate(169,326)"/>
<path d="M0 0 C1.65 0 3.3 0 5 0 C3.68 0.33 2.36 0.66 1 1 C1.33 3.31 1.66 5.62 2 8 C1.01 8.495 1.01 8.495 0 9 C-1.10844919 5.67465243 -0.84454356 3.37817425 0 0 Z " fill="#DE5533" transform="translate(21,267)"/>
<path d="M0 0 C4.455 0.99 4.455 0.99 9 2 C9 2.33 9 2.66 9 3 C6.36 3 3.72 3 1 3 C0.67 2.01 0.34 1.02 0 0 Z " fill="#D86D49" transform="translate(314,113)"/>
<path d="M0 0 C0.66 0 1.32 0 2 0 C1.67 1.98 1.34 3.96 1 6 C0.34 6 -0.32 6 -1 6 C-1.33 6.66 -1.66 7.32 -2 8 C-1.125 1.125 -1.125 1.125 0 0 Z " fill="#E16638" transform="translate(139,90)"/>
</svg>
